<svg xmlns="http://www.w3.org/2000/svg" viewBox="0 0 520 520" preserveAspectRatio="xMidYMid meet">
  <defs>
    <radialGradient id="halo" cx="50%" cy="50%" r="50%"><stop stop-color="#D8A84D" stop-opacity=".3"/><stop offset="42%" stop-color="#D8A84D" stop-opacity=".08"/><stop offset="100%" stop-color="#D8A84D" stop-opacity="0"/></radialGradient>
    <filter id="soft"><feGaussianBlur stdDeviation="6"/></filter>
  </defs>
  <circle cx="260" cy="260" r="240" fill="url(#halo)"/>
  <g fill="none" stroke="#D8A84D" stroke-opacity=".27" stroke-width="1.3">
    <circle cx="260" cy="260" r="88"/><circle cx="260" cy="260" r="133"/><circle cx="260" cy="260" r="190"/>
    <path d="M260 18v70M260 430v70M18 260h70M430 260h70"/>
    <ellipse cx="260" cy="420" rx="154" ry="28"/><ellipse cx="260" cy="420" rx="104" ry="18"/><ellipse cx="260" cy="420" rx="54" ry="9"/>
  </g>
  <g transform="translate(165 104) scale(1.7)">
    <path d="M64 8l46 18v33c0 32-20 52-46 61-26-9-46-29-46-61V26z" fill="rgba(216,168,77,.10)" stroke="#F0CB73" stroke-width="5"/>
    <circle cx="64" cy="54" r="14" fill="none" stroke="#F0CB73" stroke-width="5"/>
    <path d="M39 88c8-19 42-19 50 0" fill="none" stroke="#F0CB73" stroke-width="5" stroke-linecap="round"/>
  </g>
  <circle cx="260" cy="420" r="7" fill="#F0CB73" filter="url(#soft)"/>
</svg>