<svg xmlns="http://www.w3.org/2000/svg" width="430" height="580" viewBox="0 0 430 580" fill="none">
<defs>

</defs>
<polygon points="-3.8,-40.0 -28.0,-26.0 -52.2,-40.0 -52.2,-68.0 -28.0,-82.0 -3.8,-68.0" stroke="#D6AA58" stroke-width="1" opacity=".07"/>
<polygon points="-19.8,14.0 -44.0,28.0 -68.2,14.0 -68.2,-14.0 -44.0,-28.0 -19.8,-14.0" stroke="#D6AA58" stroke-width="1" opacity=".07"/>
<polygon points="-3.8,68.0 -28.0,82.0 -52.2,68.0 -52.2,40.0 -28.0,26.0 -3.8,40.0" stroke="#D6AA58" stroke-width="1" opacity=".07"/>
<polygon points="-19.8,122.0 -44.0,136.0 -68.2,122.0 -68.2,94.0 -44.0,80.0 -19.8,94.0" stroke="#D6AA58" stroke-width="1" opacity=".07"/>
<polygon points="-3.8,176.0 -28.0,190.0 -52.2,176.0 -52.2,148.0 -28.0,134.0 -3.8,148.0" stroke="#D6AA58" stroke-width="1" opacity=".07"/>
<polygon points="-19.8,230.0 -44.0,244.0 -68.2,230.0 -68.2,202.0 -44.0,188.0 -19.8,202.0" stroke="#D6AA58" stroke-width="1" opacity=".07"/>
<polygon points="-3.8,284.0 -28.0,298.0 -52.2,284.0 -52.2,256.0 -28.0,242.0 -3.8,256.0" stroke="#D6AA58" stroke-width="1" opacity=".07"/>
<polygon points="-19.8,338.0 -44.0,352.0 -68.2,338.0 -68.2,310.0 -44.0,296.0 -19.8,310.0" stroke="#D6AA58" stroke-width="1" opacity=".07"/>
<polygon points="-3.8,392.0 -28.0,406.0 -52.2,392.0 -52.2,364.0 -28.0,350.0 -3.8,364.0" stroke="#D6AA58" stroke-width="1" opacity=".07"/>
<polygon points="-19.8,446.0 -44.0,460.0 -68.2,446.0 -68.2,418.0 -44.0,404.0 -19.8,418.0" stroke="#D6AA58" stroke-width="1" opacity=".07"/>
<polygon points="-3.8,500.0 -28.0,514.0 -52.2,500.0 -52.2,472.0 -28.0,458.0 -3.8,472.0" stroke="#D6AA58" stroke-width="1" opacity=".07"/>
<polygon points="-19.8,554.0 -44.0,568.0 -68.2,554.0 -68.2,526.0 -44.0,512.0 -19.8,526.0" stroke="#D6AA58" stroke-width="1" opacity=".07"/>
<polygon points="-3.8,608.0 -28.0,622.0 -52.2,608.0 -52.2,580.0 -28.0,566.0 -3.8,580.0" stroke="#D6AA58" stroke-width="1" opacity=".07"/>
<polygon points="436.2,-40.0 412.0,-26.0 387.8,-40.0 387.8,-68.0 412.0,-82.0 436.2,-68.0" stroke="#D6AA58" stroke-width="1" opacity=".07"/>
<polygon points="420.2,14.0 396.0,28.0 371.8,14.0 371.8,-14.0 396.0,-28.0 420.2,-14.0" stroke="#D6AA58" stroke-width="1" opacity=".07"/>
<polygon points="436.2,68.0 412.0,82.0 387.8,68.0 387.8,40.0 412.0,26.0 436.2,40.0" stroke="#D6AA58" stroke-width="1" opacity=".07"/>
<polygon points="420.2,122.0 396.0,136.0 371.8,122.0 371.8,94.0 396.0,80.0 420.2,94.0" stroke="#D6AA58" stroke-width="1" opacity=".07"/>
<polygon points="436.2,176.0 412.0,190.0 387.8,176.0 387.8,148.0 412.0,134.0 436.2,148.0" stroke="#D6AA58" stroke-width="1" opacity=".07"/>
<polygon points="420.2,230.0 396.0,244.0 371.8,230.0 371.8,202.0 396.0,188.0 420.2,202.0" stroke="#D6AA58" stroke-width="1" opacity=".07"/>
<polygon points="436.2,284.0 412.0,298.0 387.8,284.0 387.8,256.0 412.0,242.0 436.2,256.0" stroke="#D6AA58" stroke-width="1" opacity=".07"/>
<polygon points="420.2,338.0 396.0,352.0 371.8,338.0 371.8,310.0 396.0,296.0 420.2,310.0" stroke="#D6AA58" stroke-width="1" opacity=".07"/>
<polygon points="436.2,392.0 412.0,406.0 387.8,392.0 387.8,364.0 412.0,350.0 436.2,364.0" stroke="#D6AA58" stroke-width="1" opacity=".07"/>
<polygon points="420.2,446.0 396.0,460.0 371.8,446.0 371.8,418.0 396.0,404.0 420.2,418.0" stroke="#D6AA58" stroke-width="1" opacity=".07"/>
<polygon points="436.2,500.0 412.0,514.0 387.8,500.0 387.8,472.0 412.0,458.0 436.2,472.0" stroke="#D6AA58" stroke-width="1" opacity=".07"/>
<polygon points="420.2,554.0 396.0,568.0 371.8,554.0 371.8,526.0 396.0,512.0 420.2,526.0" stroke="#D6AA58" stroke-width="1" opacity=".07"/>
<polygon points="436.2,608.0 412.0,622.0 387.8,608.0 387.8,580.0 412.0,566.0 436.2,580.0" stroke="#D6AA58" stroke-width="1" opacity=".07"/>
</svg>