<svg xmlns="http://www.w3.org/2000/svg" width="960" height="1080" viewBox="0 0 960 1080" fill="none">
<defs>

</defs>
<path d="M 210 20 C 430 100 540 -100 915 65" stroke="#D6AA58" stroke-width="1" opacity="0.035"/>
<path d="M 210 39 C 430 119 540 -81 915 84" stroke="#D6AA58" stroke-width="1" opacity="0.040"/>
<path d="M 210 58 C 430 138 540 -62 915 103" stroke="#D6AA58" stroke-width="1" opacity="0.045"/>
<path d="M 210 77 C 430 157 540 -43 915 122" stroke="#D6AA58" stroke-width="1" opacity="0.050"/>
<path d="M 210 96 C 430 176 540 -24 915 141" stroke="#D6AA58" stroke-width="1" opacity="0.055"/>
<path d="M 210 115 C 430 195 540 -5 915 160" stroke="#D6AA58" stroke-width="1" opacity="0.060"/>
<path d="M 210 134 C 430 214 540 14 915 179" stroke="#D6AA58" stroke-width="1" opacity="0.065"/>
<path d="M 210 153 C 430 233 540 33 915 198" stroke="#D6AA58" stroke-width="1" opacity="0.070"/>
<path d="M 210 172 C 430 252 540 52 915 217" stroke="#D6AA58" stroke-width="1" opacity="0.075"/>
<path d="M 210 191 C 430 271 540 71 915 236" stroke="#D6AA58" stroke-width="1" opacity="0.080"/>
<path d="M 210 210 C 430 290 540 90 915 255" stroke="#D6AA58" stroke-width="1" opacity="0.085"/>
<path d="M 210 229 C 430 309 540 109 915 274" stroke="#D6AA58" stroke-width="1" opacity="0.090"/>
<path d="M 210 248 C 430 328 540 128 915 293" stroke="#D6AA58" stroke-width="1" opacity="0.095"/>
<path d="M 210 267 C 430 347 540 147 915 312" stroke="#D6AA58" stroke-width="1" opacity="0.100"/>
<path d="M 210 286 C 430 366 540 166 915 331" stroke="#D6AA58" stroke-width="1" opacity="0.105"/>
<path d="M 210 305 C 430 385 540 185 915 350" stroke="#D6AA58" stroke-width="1" opacity="0.110"/>
<path d="M 440 680 C 630 560 760 760 1040 635" stroke="#D6AA58" stroke-width="1" opacity="0.045"/>
<path d="M 440 702 C 630 582 760 782 1040 657" stroke="#D6AA58" stroke-width="1" opacity="0.045"/>
<path d="M 440 724 C 630 604 760 804 1040 679" stroke="#D6AA58" stroke-width="1" opacity="0.045"/>
<path d="M 440 746 C 630 626 760 826 1040 701" stroke="#D6AA58" stroke-width="1" opacity="0.045"/>
<path d="M 440 768 C 630 648 760 848 1040 723" stroke="#D6AA58" stroke-width="1" opacity="0.045"/>
<path d="M 440 790 C 630 670 760 870 1040 745" stroke="#D6AA58" stroke-width="1" opacity="0.045"/>
<path d="M 440 812 C 630 692 760 892 1040 767" stroke="#D6AA58" stroke-width="1" opacity="0.045"/>
<path d="M 440 834 C 630 714 760 914 1040 789" stroke="#D6AA58" stroke-width="1" opacity="0.045"/>
<path d="M 440 856 C 630 736 760 936 1040 811" stroke="#D6AA58" stroke-width="1" opacity="0.045"/>
<path d="M 440 878 C 630 758 760 958 1040 833" stroke="#D6AA58" stroke-width="1" opacity="0.045"/>
<path d="M 440 900 C 630 780 760 980 1040 855" stroke="#D6AA58" stroke-width="1" opacity="0.045"/>
<path d="M 440 922 C 630 802 760 1002 1040 877" stroke="#D6AA58" stroke-width="1" opacity="0.045"/>
<path d="M 440 944 C 630 824 760 1024 1040 899" stroke="#D6AA58" stroke-width="1" opacity="0.045"/>
<path d="M 440 966 C 630 846 760 1046 1040 921" stroke="#D6AA58" stroke-width="1" opacity="0.045"/>
<path d="M 440 988 C 630 868 760 1068 1040 943" stroke="#D6AA58" stroke-width="1" opacity="0.045"/>
<path d="M 440 1010 C 630 890 760 1090 1040 965" stroke="#D6AA58" stroke-width="1" opacity="0.045"/>
<path d="M 440 1032 C 630 912 760 1112 1040 987" stroke="#D6AA58" stroke-width="1" opacity="0.045"/>
<path d="M 440 1054 C 630 934 760 1134 1040 1009" stroke="#D6AA58" stroke-width="1" opacity="0.045"/>
<circle cx="745" cy="260" r="130" stroke="#D6AA58" stroke-width="1" opacity="0.035"/>
<circle cx="745" cy="260" r="230" stroke="#D6AA58" stroke-width="1" opacity="0.028"/>
<circle cx="745" cy="260" r="330" stroke="#D6AA58" stroke-width="1" opacity="0.024"/>
<circle cx="745" cy="260" r="430" stroke="#D6AA58" stroke-width="1" opacity="0.019"/>
</svg>