<svg xmlns="http://www.w3.org/2000/svg" width="960" height="1080" viewBox="0 0 960 1080" fill="none">
<defs>

</defs>
<polygon points="849.0,-96.1 834.9,-82.0 815.1,-82.0 801.0,-96.1 801.0,-115.9 815.1,-130.0 834.9,-130.0 849.0,-115.9" stroke="#D6AA58" stroke-width="1" opacity="0.08"/>
<circle cx="825" cy="-106" r="11.7" stroke="#D6AA58" stroke-width="1" opacity="0.04"/>
<polygon points="894.0,-96.1 879.9,-82.0 860.1,-82.0 846.0,-96.1 846.0,-115.9 860.1,-130.0 879.9,-130.0 894.0,-115.9" stroke="#D6AA58" stroke-width="1" opacity="0.08"/>
<circle cx="870" cy="-106" r="11.7" stroke="#D6AA58" stroke-width="1" opacity="0.04"/>
<polygon points="939.0,-96.1 924.9,-82.0 905.1,-82.0 891.0,-96.1 891.0,-115.9 905.1,-130.0 924.9,-130.0 939.0,-115.9" stroke="#D6AA58" stroke-width="1" opacity="0.08"/>
<circle cx="915" cy="-106" r="11.7" stroke="#D6AA58" stroke-width="1" opacity="0.04"/>
<polygon points="984.0,-96.1 969.9,-82.0 950.1,-82.0 936.0,-96.1 936.0,-115.9 950.1,-130.0 969.9,-130.0 984.0,-115.9" stroke="#D6AA58" stroke-width="1" opacity="0.08"/>
<circle cx="960" cy="-106" r="11.7" stroke="#D6AA58" stroke-width="1" opacity="0.04"/>
<polygon points="1029.0,-96.1 1014.9,-82.0 995.1,-82.0 981.0,-96.1 981.0,-115.9 995.1,-130.0 1014.9,-130.0 1029.0,-115.9" stroke="#D6AA58" stroke-width="1" opacity="0.08"/>
<circle cx="1005" cy="-106" r="11.7" stroke="#D6AA58" stroke-width="1" opacity="0.04"/>
<polygon points="871.0,-38.1 856.9,-24.0 837.1,-24.0 823.0,-38.1 823.0,-57.9 837.1,-72.0 856.9,-72.0 871.0,-57.9" stroke="#D6AA58" stroke-width="1" opacity="0.08"/>
<circle cx="847" cy="-48" r="11.7" stroke="#D6AA58" stroke-width="1" opacity="0.04"/>
<polygon points="916.0,-38.1 901.9,-24.0 882.1,-24.0 868.0,-38.1 868.0,-57.9 882.1,-72.0 901.9,-72.0 916.0,-57.9" stroke="#D6AA58" stroke-width="1" opacity="0.08"/>
<circle cx="892" cy="-48" r="11.7" stroke="#D6AA58" stroke-width="1" opacity="0.04"/>
<polygon points="961.0,-38.1 946.9,-24.0 927.1,-24.0 913.0,-38.1 913.0,-57.9 927.1,-72.0 946.9,-72.0 961.0,-57.9" stroke="#D6AA58" stroke-width="1" opacity="0.08"/>
<circle cx="937" cy="-48" r="11.7" stroke="#D6AA58" stroke-width="1" opacity="0.04"/>
<polygon points="1006.0,-38.1 991.9,-24.0 972.1,-24.0 958.0,-38.1 958.0,-57.9 972.1,-72.0 991.9,-72.0 1006.0,-57.9" stroke="#D6AA58" stroke-width="1" opacity="0.08"/>
<circle cx="982" cy="-48" r="11.7" stroke="#D6AA58" stroke-width="1" opacity="0.04"/>
<polygon points="1051.0,-38.1 1036.9,-24.0 1017.1,-24.0 1003.0,-38.1 1003.0,-57.9 1017.1,-72.0 1036.9,-72.0 1051.0,-57.9" stroke="#D6AA58" stroke-width="1" opacity="0.08"/>
<circle cx="1027" cy="-48" r="11.7" stroke="#D6AA58" stroke-width="1" opacity="0.04"/>
<polygon points="849.0,19.9 834.9,34.0 815.1,34.0 801.0,19.9 801.0,0.1 815.1,-14.0 834.9,-14.0 849.0,0.1" stroke="#D6AA58" stroke-width="1" opacity="0.08"/>
<circle cx="825" cy="10" r="11.7" stroke="#D6AA58" stroke-width="1" opacity="0.04"/>
<polygon points="894.0,19.9 879.9,34.0 860.1,34.0 846.0,19.9 846.0,0.1 860.1,-14.0 879.9,-14.0 894.0,0.1" stroke="#D6AA58" stroke-width="1" opacity="0.08"/>
<circle cx="870" cy="10" r="11.7" stroke="#D6AA58" stroke-width="1" opacity="0.04"/>
<polygon points="939.0,19.9 924.9,34.0 905.1,34.0 891.0,19.9 891.0,0.1 905.1,-14.0 924.9,-14.0 939.0,0.1" stroke="#D6AA58" stroke-width="1" opacity="0.08"/>
<circle cx="915" cy="10" r="11.7" stroke="#D6AA58" stroke-width="1" opacity="0.04"/>
<polygon points="984.0,19.9 969.9,34.0 950.1,34.0 936.0,19.9 936.0,0.1 950.1,-14.0 969.9,-14.0 984.0,0.1" stroke="#D6AA58" stroke-width="1" opacity="0.08"/>
<circle cx="960" cy="10" r="11.7" stroke="#D6AA58" stroke-width="1" opacity="0.04"/>
<polygon points="1029.0,19.9 1014.9,34.0 995.1,34.0 981.0,19.9 981.0,0.1 995.1,-14.0 1014.9,-14.0 1029.0,0.1" stroke="#D6AA58" stroke-width="1" opacity="0.08"/>
<circle cx="1005" cy="10" r="11.7" stroke="#D6AA58" stroke-width="1" opacity="0.04"/>
<polygon points="871.0,77.9 856.9,92.0 837.1,92.0 823.0,77.9 823.0,58.1 837.1,44.0 856.9,44.0 871.0,58.1" stroke="#D6AA58" stroke-width="1" opacity="0.08"/>
<circle cx="847" cy="68" r="11.7" stroke="#D6AA58" stroke-width="1" opacity="0.04"/>
<polygon points="916.0,77.9 901.9,92.0 882.1,92.0 868.0,77.9 868.0,58.1 882.1,44.0 901.9,44.0 916.0,58.1" stroke="#D6AA58" stroke-width="1" opacity="0.08"/>
<circle cx="892" cy="68" r="11.7" stroke="#D6AA58" stroke-width="1" opacity="0.04"/>
<polygon points="961.0,77.9 946.9,92.0 927.1,92.0 913.0,77.9 913.0,58.1 927.1,44.0 946.9,44.0 961.0,58.1" stroke="#D6AA58" stroke-width="1" opacity="0.08"/>
<circle cx="937" cy="68" r="11.7" stroke="#D6AA58" stroke-width="1" opacity="0.04"/>
<polygon points="1006.0,77.9 991.9,92.0 972.1,92.0 958.0,77.9 958.0,58.1 972.1,44.0 991.9,44.0 1006.0,58.1" stroke="#D6AA58" stroke-width="1" opacity="0.08"/>
<circle cx="982" cy="68" r="11.7" stroke="#D6AA58" stroke-width="1" opacity="0.04"/>
<polygon points="1051.0,77.9 1036.9,92.0 1017.1,92.0 1003.0,77.9 1003.0,58.1 1017.1,44.0 1036.9,44.0 1051.0,58.1" stroke="#D6AA58" stroke-width="1" opacity="0.08"/>
<circle cx="1027" cy="68" r="11.7" stroke="#D6AA58" stroke-width="1" opacity="0.04"/>
<polygon points="849.0,135.9 834.9,150.0 815.1,150.0 801.0,135.9 801.0,116.1 815.1,102.0 834.9,102.0 849.0,116.1" stroke="#D6AA58" stroke-width="1" opacity="0.08"/>
<circle cx="825" cy="126" r="11.7" stroke="#D6AA58" stroke-width="1" opacity="0.04"/>
<polygon points="894.0,135.9 879.9,150.0 860.1,150.0 846.0,135.9 846.0,116.1 860.1,102.0 879.9,102.0 894.0,116.1" stroke="#D6AA58" stroke-width="1" opacity="0.08"/>
<circle cx="870" cy="126" r="11.7" stroke="#D6AA58" stroke-width="1" opacity="0.04"/>
<polygon points="939.0,135.9 924.9,150.0 905.1,150.0 891.0,135.9 891.0,116.1 905.1,102.0 924.9,102.0 939.0,116.1" stroke="#D6AA58" stroke-width="1" opacity="0.08"/>
<circle cx="915" cy="126" r="11.7" stroke="#D6AA58" stroke-width="1" opacity="0.04"/>
<polygon points="984.0,135.9 969.9,150.0 950.1,150.0 936.0,135.9 936.0,116.1 950.1,102.0 969.9,102.0 984.0,116.1" stroke="#D6AA58" stroke-width="1" opacity="0.08"/>
<circle cx="960" cy="126" r="11.7" stroke="#D6AA58" stroke-width="1" opacity="0.04"/>
<polygon points="1029.0,135.9 1014.9,150.0 995.1,150.0 981.0,135.9 981.0,116.1 995.1,102.0 1014.9,102.0 1029.0,116.1" stroke="#D6AA58" stroke-width="1" opacity="0.08"/>
<circle cx="1005" cy="126" r="11.7" stroke="#D6AA58" stroke-width="1" opacity="0.04"/>
<polygon points="871.0,193.9 856.9,208.0 837.1,208.0 823.0,193.9 823.0,174.1 837.1,160.0 856.9,160.0 871.0,174.1" stroke="#D6AA58" stroke-width="1" opacity="0.08"/>
<circle cx="847" cy="184" r="11.7" stroke="#D6AA58" stroke-width="1" opacity="0.04"/>
<polygon points="916.0,193.9 901.9,208.0 882.1,208.0 868.0,193.9 868.0,174.1 882.1,160.0 901.9,160.0 916.0,174.1" stroke="#D6AA58" stroke-width="1" opacity="0.08"/>
<circle cx="892" cy="184" r="11.7" stroke="#D6AA58" stroke-width="1" opacity="0.04"/>
<polygon points="961.0,193.9 946.9,208.0 927.1,208.0 913.0,193.9 913.0,174.1 927.1,160.0 946.9,160.0 961.0,174.1" stroke="#D6AA58" stroke-width="1" opacity="0.08"/>
<circle cx="937" cy="184" r="11.7" stroke="#D6AA58" stroke-width="1" opacity="0.04"/>
<polygon points="1006.0,193.9 991.9,208.0 972.1,208.0 958.0,193.9 958.0,174.1 972.1,160.0 991.9,160.0 1006.0,174.1" stroke="#D6AA58" stroke-width="1" opacity="0.08"/>
<circle cx="982" cy="184" r="11.7" stroke="#D6AA58" stroke-width="1" opacity="0.04"/>
<polygon points="1051.0,193.9 1036.9,208.0 1017.1,208.0 1003.0,193.9 1003.0,174.1 1017.1,160.0 1036.9,160.0 1051.0,174.1" stroke="#D6AA58" stroke-width="1" opacity="0.08"/>
<circle cx="1027" cy="184" r="11.7" stroke="#D6AA58" stroke-width="1" opacity="0.04"/>
<polygon points="849.0,251.9 834.9,266.0 815.1,266.0 801.0,251.9 801.0,232.1 815.1,218.0 834.9,218.0 849.0,232.1" stroke="#D6AA58" stroke-width="1" opacity="0.08"/>
<circle cx="825" cy="242" r="11.7" stroke="#D6AA58" stroke-width="1" opacity="0.04"/>
<polygon points="894.0,251.9 879.9,266.0 860.1,266.0 846.0,251.9 846.0,232.1 860.1,218.0 879.9,218.0 894.0,232.1" stroke="#D6AA58" stroke-width="1" opacity="0.08"/>
<circle cx="870" cy="242" r="11.7" stroke="#D6AA58" stroke-width="1" opacity="0.04"/>
<polygon points="939.0,251.9 924.9,266.0 905.1,266.0 891.0,251.9 891.0,232.1 905.1,218.0 924.9,218.0 939.0,232.1" stroke="#D6AA58" stroke-width="1" opacity="0.08"/>
<circle cx="915" cy="242" r="11.7" stroke="#D6AA58" stroke-width="1" opacity="0.04"/>
<polygon points="984.0,251.9 969.9,266.0 950.1,266.0 936.0,251.9 936.0,232.1 950.1,218.0 969.9,218.0 984.0,232.1" stroke="#D6AA58" stroke-width="1" opacity="0.08"/>
<circle cx="960" cy="242" r="11.7" stroke="#D6AA58" stroke-width="1" opacity="0.04"/>
<polygon points="1029.0,251.9 1014.9,266.0 995.1,266.0 981.0,251.9 981.0,232.1 995.1,218.0 1014.9,218.0 1029.0,232.1" stroke="#D6AA58" stroke-width="1" opacity="0.08"/>
<circle cx="1005" cy="242" r="11.7" stroke="#D6AA58" stroke-width="1" opacity="0.04"/>
<polygon points="871.0,309.9 856.9,324.0 837.1,324.0 823.0,309.9 823.0,290.1 837.1,276.0 856.9,276.0 871.0,290.1" stroke="#D6AA58" stroke-width="1" opacity="0.08"/>
<circle cx="847" cy="300" r="11.7" stroke="#D6AA58" stroke-width="1" opacity="0.04"/>
<polygon points="916.0,309.9 901.9,324.0 882.1,324.0 868.0,309.9 868.0,290.1 882.1,276.0 901.9,276.0 916.0,290.1" stroke="#D6AA58" stroke-width="1" opacity="0.08"/>
<circle cx="892" cy="300" r="11.7" stroke="#D6AA58" stroke-width="1" opacity="0.04"/>
<polygon points="961.0,309.9 946.9,324.0 927.1,324.0 913.0,309.9 913.0,290.1 927.1,276.0 946.9,276.0 961.0,290.1" stroke="#D6AA58" stroke-width="1" opacity="0.08"/>
<circle cx="937" cy="300" r="11.7" stroke="#D6AA58" stroke-width="1" opacity="0.04"/>
<polygon points="1006.0,309.9 991.9,324.0 972.1,324.0 958.0,309.9 958.0,290.1 972.1,276.0 991.9,276.0 1006.0,290.1" stroke="#D6AA58" stroke-width="1" opacity="0.08"/>
<circle cx="982" cy="300" r="11.7" stroke="#D6AA58" stroke-width="1" opacity="0.04"/>
<polygon points="1051.0,309.9 1036.9,324.0 1017.1,324.0 1003.0,309.9 1003.0,290.1 1017.1,276.0 1036.9,276.0 1051.0,290.1" stroke="#D6AA58" stroke-width="1" opacity="0.08"/>
<circle cx="1027" cy="300" r="11.7" stroke="#D6AA58" stroke-width="1" opacity="0.04"/>
<polygon points="849.0,367.9 834.9,382.0 815.1,382.0 801.0,367.9 801.0,348.1 815.1,334.0 834.9,334.0 849.0,348.1" stroke="#D6AA58" stroke-width="1" opacity="0.08"/>
<circle cx="825" cy="358" r="11.7" stroke="#D6AA58" stroke-width="1" opacity="0.04"/>
<polygon points="894.0,367.9 879.9,382.0 860.1,382.0 846.0,367.9 846.0,348.1 860.1,334.0 879.9,334.0 894.0,348.1" stroke="#D6AA58" stroke-width="1" opacity="0.08"/>
<circle cx="870" cy="358" r="11.7" stroke="#D6AA58" stroke-width="1" opacity="0.04"/>
<polygon points="939.0,367.9 924.9,382.0 905.1,382.0 891.0,367.9 891.0,348.1 905.1,334.0 924.9,334.0 939.0,348.1" stroke="#D6AA58" stroke-width="1" opacity="0.08"/>
<circle cx="915" cy="358" r="11.7" stroke="#D6AA58" stroke-width="1" opacity="0.04"/>
<polygon points="984.0,367.9 969.9,382.0 950.1,382.0 936.0,367.9 936.0,348.1 950.1,334.0 969.9,334.0 984.0,348.1" stroke="#D6AA58" stroke-width="1" opacity="0.08"/>
<circle cx="960" cy="358" r="11.7" stroke="#D6AA58" stroke-width="1" opacity="0.04"/>
<polygon points="1029.0,367.9 1014.9,382.0 995.1,382.0 981.0,367.9 981.0,348.1 995.1,334.0 1014.9,334.0 1029.0,348.1" stroke="#D6AA58" stroke-width="1" opacity="0.08"/>
<circle cx="1005" cy="358" r="11.7" stroke="#D6AA58" stroke-width="1" opacity="0.04"/>
<polygon points="871.0,425.9 856.9,440.0 837.1,440.0 823.0,425.9 823.0,406.1 837.1,392.0 856.9,392.0 871.0,406.1" stroke="#D6AA58" stroke-width="1" opacity="0.08"/>
<circle cx="847" cy="416" r="11.7" stroke="#D6AA58" stroke-width="1" opacity="0.04"/>
<polygon points="916.0,425.9 901.9,440.0 882.1,440.0 868.0,425.9 868.0,406.1 882.1,392.0 901.9,392.0 916.0,406.1" stroke="#D6AA58" stroke-width="1" opacity="0.08"/>
<circle cx="892" cy="416" r="11.7" stroke="#D6AA58" stroke-width="1" opacity="0.04"/>
<polygon points="961.0,425.9 946.9,440.0 927.1,440.0 913.0,425.9 913.0,406.1 927.1,392.0 946.9,392.0 961.0,406.1" stroke="#D6AA58" stroke-width="1" opacity="0.08"/>
<circle cx="937" cy="416" r="11.7" stroke="#D6AA58" stroke-width="1" opacity="0.04"/>
<polygon points="1006.0,425.9 991.9,440.0 972.1,440.0 958.0,425.9 958.0,406.1 972.1,392.0 991.9,392.0 1006.0,406.1" stroke="#D6AA58" stroke-width="1" opacity="0.08"/>
<circle cx="982" cy="416" r="11.7" stroke="#D6AA58" stroke-width="1" opacity="0.04"/>
<polygon points="1051.0,425.9 1036.9,440.0 1017.1,440.0 1003.0,425.9 1003.0,406.1 1017.1,392.0 1036.9,392.0 1051.0,406.1" stroke="#D6AA58" stroke-width="1" opacity="0.08"/>
<circle cx="1027" cy="416" r="11.7" stroke="#D6AA58" stroke-width="1" opacity="0.04"/>
<polygon points="849.0,483.9 834.9,498.0 815.1,498.0 801.0,483.9 801.0,464.1 815.1,450.0 834.9,450.0 849.0,464.1" stroke="#D6AA58" stroke-width="1" opacity="0.08"/>
<circle cx="825" cy="474" r="11.7" stroke="#D6AA58" stroke-width="1" opacity="0.04"/>
<polygon points="894.0,483.9 879.9,498.0 860.1,498.0 846.0,483.9 846.0,464.1 860.1,450.0 879.9,450.0 894.0,464.1" stroke="#D6AA58" stroke-width="1" opacity="0.08"/>
<circle cx="870" cy="474" r="11.7" stroke="#D6AA58" stroke-width="1" opacity="0.04"/>
<polygon points="939.0,483.9 924.9,498.0 905.1,498.0 891.0,483.9 891.0,464.1 905.1,450.0 924.9,450.0 939.0,464.1" stroke="#D6AA58" stroke-width="1" opacity="0.08"/>
<circle cx="915" cy="474" r="11.7" stroke="#D6AA58" stroke-width="1" opacity="0.04"/>
<polygon points="984.0,483.9 969.9,498.0 950.1,498.0 936.0,483.9 936.0,464.1 950.1,450.0 969.9,450.0 984.0,464.1" stroke="#D6AA58" stroke-width="1" opacity="0.08"/>
<circle cx="960" cy="474" r="11.7" stroke="#D6AA58" stroke-width="1" opacity="0.04"/>
<polygon points="1029.0,483.9 1014.9,498.0 995.1,498.0 981.0,483.9 981.0,464.1 995.1,450.0 1014.9,450.0 1029.0,464.1" stroke="#D6AA58" stroke-width="1" opacity="0.08"/>
<circle cx="1005" cy="474" r="11.7" stroke="#D6AA58" stroke-width="1" opacity="0.04"/>
<polygon points="871.0,541.9 856.9,556.0 837.1,556.0 823.0,541.9 823.0,522.1 837.1,508.0 856.9,508.0 871.0,522.1" stroke="#D6AA58" stroke-width="1" opacity="0.08"/>
<circle cx="847" cy="532" r="11.7" stroke="#D6AA58" stroke-width="1" opacity="0.04"/>
<polygon points="916.0,541.9 901.9,556.0 882.1,556.0 868.0,541.9 868.0,522.1 882.1,508.0 901.9,508.0 916.0,522.1" stroke="#D6AA58" stroke-width="1" opacity="0.08"/>
<circle cx="892" cy="532" r="11.7" stroke="#D6AA58" stroke-width="1" opacity="0.04"/>
<polygon points="961.0,541.9 946.9,556.0 927.1,556.0 913.0,541.9 913.0,522.1 927.1,508.0 946.9,508.0 961.0,522.1" stroke="#D6AA58" stroke-width="1" opacity="0.08"/>
<circle cx="937" cy="532" r="11.7" stroke="#D6AA58" stroke-width="1" opacity="0.04"/>
<polygon points="1006.0,541.9 991.9,556.0 972.1,556.0 958.0,541.9 958.0,522.1 972.1,508.0 991.9,508.0 1006.0,522.1" stroke="#D6AA58" stroke-width="1" opacity="0.08"/>
<circle cx="982" cy="532" r="11.7" stroke="#D6AA58" stroke-width="1" opacity="0.04"/>
<polygon points="1051.0,541.9 1036.9,556.0 1017.1,556.0 1003.0,541.9 1003.0,522.1 1017.1,508.0 1036.9,508.0 1051.0,522.1" stroke="#D6AA58" stroke-width="1" opacity="0.08"/>
<circle cx="1027" cy="532" r="11.7" stroke="#D6AA58" stroke-width="1" opacity="0.04"/>
<polygon points="849.0,599.9 834.9,614.0 815.1,614.0 801.0,599.9 801.0,580.1 815.1,566.0 834.9,566.0 849.0,580.1" stroke="#D6AA58" stroke-width="1" opacity="0.08"/>
<circle cx="825" cy="590" r="11.7" stroke="#D6AA58" stroke-width="1" opacity="0.04"/>
<polygon points="894.0,599.9 879.9,614.0 860.1,614.0 846.0,599.9 846.0,580.1 860.1,566.0 879.9,566.0 894.0,580.1" stroke="#D6AA58" stroke-width="1" opacity="0.08"/>
<circle cx="870" cy="590" r="11.7" stroke="#D6AA58" stroke-width="1" opacity="0.04"/>
<polygon points="939.0,599.9 924.9,614.0 905.1,614.0 891.0,599.9 891.0,580.1 905.1,566.0 924.9,566.0 939.0,580.1" stroke="#D6AA58" stroke-width="1" opacity="0.08"/>
<circle cx="915" cy="590" r="11.7" stroke="#D6AA58" stroke-width="1" opacity="0.04"/>
<polygon points="984.0,599.9 969.9,614.0 950.1,614.0 936.0,599.9 936.0,580.1 950.1,566.0 969.9,566.0 984.0,580.1" stroke="#D6AA58" stroke-width="1" opacity="0.08"/>
<circle cx="960" cy="590" r="11.7" stroke="#D6AA58" stroke-width="1" opacity="0.04"/>
<polygon points="1029.0,599.9 1014.9,614.0 995.1,614.0 981.0,599.9 981.0,580.1 995.1,566.0 1014.9,566.0 1029.0,580.1" stroke="#D6AA58" stroke-width="1" opacity="0.08"/>
<circle cx="1005" cy="590" r="11.7" stroke="#D6AA58" stroke-width="1" opacity="0.04"/>
<polygon points="871.0,657.9 856.9,672.0 837.1,672.0 823.0,657.9 823.0,638.1 837.1,624.0 856.9,624.0 871.0,638.1" stroke="#D6AA58" stroke-width="1" opacity="0.08"/>
<circle cx="847" cy="648" r="11.7" stroke="#D6AA58" stroke-width="1" opacity="0.04"/>
<polygon points="916.0,657.9 901.9,672.0 882.1,672.0 868.0,657.9 868.0,638.1 882.1,624.0 901.9,624.0 916.0,638.1" stroke="#D6AA58" stroke-width="1" opacity="0.08"/>
<circle cx="892" cy="648" r="11.7" stroke="#D6AA58" stroke-width="1" opacity="0.04"/>
<polygon points="961.0,657.9 946.9,672.0 927.1,672.0 913.0,657.9 913.0,638.1 927.1,624.0 946.9,624.0 961.0,638.1" stroke="#D6AA58" stroke-width="1" opacity="0.08"/>
<circle cx="937" cy="648" r="11.7" stroke="#D6AA58" stroke-width="1" opacity="0.04"/>
<polygon points="1006.0,657.9 991.9,672.0 972.1,672.0 958.0,657.9 958.0,638.1 972.1,624.0 991.9,624.0 1006.0,638.1" stroke="#D6AA58" stroke-width="1" opacity="0.08"/>
<circle cx="982" cy="648" r="11.7" stroke="#D6AA58" stroke-width="1" opacity="0.04"/>
<polygon points="1051.0,657.9 1036.9,672.0 1017.1,672.0 1003.0,657.9 1003.0,638.1 1017.1,624.0 1036.9,624.0 1051.0,638.1" stroke="#D6AA58" stroke-width="1" opacity="0.08"/>
<circle cx="1027" cy="648" r="11.7" stroke="#D6AA58" stroke-width="1" opacity="0.04"/>
<polygon points="849.0,715.9 834.9,730.0 815.1,730.0 801.0,715.9 801.0,696.1 815.1,682.0 834.9,682.0 849.0,696.1" stroke="#D6AA58" stroke-width="1" opacity="0.08"/>
<circle cx="825" cy="706" r="11.7" stroke="#D6AA58" stroke-width="1" opacity="0.04"/>
<polygon points="894.0,715.9 879.9,730.0 860.1,730.0 846.0,715.9 846.0,696.1 860.1,682.0 879.9,682.0 894.0,696.1" stroke="#D6AA58" stroke-width="1" opacity="0.08"/>
<circle cx="870" cy="706" r="11.7" stroke="#D6AA58" stroke-width="1" opacity="0.04"/>
<polygon points="939.0,715.9 924.9,730.0 905.1,730.0 891.0,715.9 891.0,696.1 905.1,682.0 924.9,682.0 939.0,696.1" stroke="#D6AA58" stroke-width="1" opacity="0.08"/>
<circle cx="915" cy="706" r="11.7" stroke="#D6AA58" stroke-width="1" opacity="0.04"/>
<polygon points="984.0,715.9 969.9,730.0 950.1,730.0 936.0,715.9 936.0,696.1 950.1,682.0 969.9,682.0 984.0,696.1" stroke="#D6AA58" stroke-width="1" opacity="0.08"/>
<circle cx="960" cy="706" r="11.7" stroke="#D6AA58" stroke-width="1" opacity="0.04"/>
<polygon points="1029.0,715.9 1014.9,730.0 995.1,730.0 981.0,715.9 981.0,696.1 995.1,682.0 1014.9,682.0 1029.0,696.1" stroke="#D6AA58" stroke-width="1" opacity="0.08"/>
<circle cx="1005" cy="706" r="11.7" stroke="#D6AA58" stroke-width="1" opacity="0.04"/>
<polygon points="871.0,773.9 856.9,788.0 837.1,788.0 823.0,773.9 823.0,754.1 837.1,740.0 856.9,740.0 871.0,754.1" stroke="#D6AA58" stroke-width="1" opacity="0.08"/>
<circle cx="847" cy="764" r="11.7" stroke="#D6AA58" stroke-width="1" opacity="0.04"/>
<polygon points="916.0,773.9 901.9,788.0 882.1,788.0 868.0,773.9 868.0,754.1 882.1,740.0 901.9,740.0 916.0,754.1" stroke="#D6AA58" stroke-width="1" opacity="0.08"/>
<circle cx="892" cy="764" r="11.7" stroke="#D6AA58" stroke-width="1" opacity="0.04"/>
<polygon points="961.0,773.9 946.9,788.0 927.1,788.0 913.0,773.9 913.0,754.1 927.1,740.0 946.9,740.0 961.0,754.1" stroke="#D6AA58" stroke-width="1" opacity="0.08"/>
<circle cx="937" cy="764" r="11.7" stroke="#D6AA58" stroke-width="1" opacity="0.04"/>
<polygon points="1006.0,773.9 991.9,788.0 972.1,788.0 958.0,773.9 958.0,754.1 972.1,740.0 991.9,740.0 1006.0,754.1" stroke="#D6AA58" stroke-width="1" opacity="0.08"/>
<circle cx="982" cy="764" r="11.7" stroke="#D6AA58" stroke-width="1" opacity="0.04"/>
<polygon points="1051.0,773.9 1036.9,788.0 1017.1,788.0 1003.0,773.9 1003.0,754.1 1017.1,740.0 1036.9,740.0 1051.0,754.1" stroke="#D6AA58" stroke-width="1" opacity="0.08"/>
<circle cx="1027" cy="764" r="11.7" stroke="#D6AA58" stroke-width="1" opacity="0.04"/>
<polygon points="849.0,831.9 834.9,846.0 815.1,846.0 801.0,831.9 801.0,812.1 815.1,798.0 834.9,798.0 849.0,812.1" stroke="#D6AA58" stroke-width="1" opacity="0.08"/>
<circle cx="825" cy="822" r="11.7" stroke="#D6AA58" stroke-width="1" opacity="0.04"/>
<polygon points="894.0,831.9 879.9,846.0 860.1,846.0 846.0,831.9 846.0,812.1 860.1,798.0 879.9,798.0 894.0,812.1" stroke="#D6AA58" stroke-width="1" opacity="0.08"/>
<circle cx="870" cy="822" r="11.7" stroke="#D6AA58" stroke-width="1" opacity="0.04"/>
<polygon points="939.0,831.9 924.9,846.0 905.1,846.0 891.0,831.9 891.0,812.1 905.1,798.0 924.9,798.0 939.0,812.1" stroke="#D6AA58" stroke-width="1" opacity="0.08"/>
<circle cx="915" cy="822" r="11.7" stroke="#D6AA58" stroke-width="1" opacity="0.04"/>
<polygon points="984.0,831.9 969.9,846.0 950.1,846.0 936.0,831.9 936.0,812.1 950.1,798.0 969.9,798.0 984.0,812.1" stroke="#D6AA58" stroke-width="1" opacity="0.08"/>
<circle cx="960" cy="822" r="11.7" stroke="#D6AA58" stroke-width="1" opacity="0.04"/>
<polygon points="1029.0,831.9 1014.9,846.0 995.1,846.0 981.0,831.9 981.0,812.1 995.1,798.0 1014.9,798.0 1029.0,812.1" stroke="#D6AA58" stroke-width="1" opacity="0.08"/>
<circle cx="1005" cy="822" r="11.7" stroke="#D6AA58" stroke-width="1" opacity="0.04"/>
<polygon points="871.0,889.9 856.9,904.0 837.1,904.0 823.0,889.9 823.0,870.1 837.1,856.0 856.9,856.0 871.0,870.1" stroke="#D6AA58" stroke-width="1" opacity="0.08"/>
<circle cx="847" cy="880" r="11.7" stroke="#D6AA58" stroke-width="1" opacity="0.04"/>
<polygon points="916.0,889.9 901.9,904.0 882.1,904.0 868.0,889.9 868.0,870.1 882.1,856.0 901.9,856.0 916.0,870.1" stroke="#D6AA58" stroke-width="1" opacity="0.08"/>
<circle cx="892" cy="880" r="11.7" stroke="#D6AA58" stroke-width="1" opacity="0.04"/>
<polygon points="961.0,889.9 946.9,904.0 927.1,904.0 913.0,889.9 913.0,870.1 927.1,856.0 946.9,856.0 961.0,870.1" stroke="#D6AA58" stroke-width="1" opacity="0.08"/>
<circle cx="937" cy="880" r="11.7" stroke="#D6AA58" stroke-width="1" opacity="0.04"/>
<polygon points="1006.0,889.9 991.9,904.0 972.1,904.0 958.0,889.9 958.0,870.1 972.1,856.0 991.9,856.0 1006.0,870.1" stroke="#D6AA58" stroke-width="1" opacity="0.08"/>
<circle cx="982" cy="880" r="11.7" stroke="#D6AA58" stroke-width="1" opacity="0.04"/>
<polygon points="1051.0,889.9 1036.9,904.0 1017.1,904.0 1003.0,889.9 1003.0,870.1 1017.1,856.0 1036.9,856.0 1051.0,870.1" stroke="#D6AA58" stroke-width="1" opacity="0.08"/>
<circle cx="1027" cy="880" r="11.7" stroke="#D6AA58" stroke-width="1" opacity="0.04"/>
<polygon points="849.0,947.9 834.9,962.0 815.1,962.0 801.0,947.9 801.0,928.1 815.1,914.0 834.9,914.0 849.0,928.1" stroke="#D6AA58" stroke-width="1" opacity="0.08"/>
<circle cx="825" cy="938" r="11.7" stroke="#D6AA58" stroke-width="1" opacity="0.04"/>
<polygon points="894.0,947.9 879.9,962.0 860.1,962.0 846.0,947.9 846.0,928.1 860.1,914.0 879.9,914.0 894.0,928.1" stroke="#D6AA58" stroke-width="1" opacity="0.08"/>
<circle cx="870" cy="938" r="11.7" stroke="#D6AA58" stroke-width="1" opacity="0.04"/>
<polygon points="939.0,947.9 924.9,962.0 905.1,962.0 891.0,947.9 891.0,928.1 905.1,914.0 924.9,914.0 939.0,928.1" stroke="#D6AA58" stroke-width="1" opacity="0.08"/>
<circle cx="915" cy="938" r="11.7" stroke="#D6AA58" stroke-width="1" opacity="0.04"/>
<polygon points="984.0,947.9 969.9,962.0 950.1,962.0 936.0,947.9 936.0,928.1 950.1,914.0 969.9,914.0 984.0,928.1" stroke="#D6AA58" stroke-width="1" opacity="0.08"/>
<circle cx="960" cy="938" r="11.7" stroke="#D6AA58" stroke-width="1" opacity="0.04"/>
<polygon points="1029.0,947.9 1014.9,962.0 995.1,962.0 981.0,947.9 981.0,928.1 995.1,914.0 1014.9,914.0 1029.0,928.1" stroke="#D6AA58" stroke-width="1" opacity="0.08"/>
<circle cx="1005" cy="938" r="11.7" stroke="#D6AA58" stroke-width="1" opacity="0.04"/>
<polygon points="871.0,1005.9 856.9,1020.0 837.1,1020.0 823.0,1005.9 823.0,986.1 837.1,972.0 856.9,972.0 871.0,986.1" stroke="#D6AA58" stroke-width="1" opacity="0.08"/>
<circle cx="847" cy="996" r="11.7" stroke="#D6AA58" stroke-width="1" opacity="0.04"/>
<polygon points="916.0,1005.9 901.9,1020.0 882.1,1020.0 868.0,1005.9 868.0,986.1 882.1,972.0 901.9,972.0 916.0,986.1" stroke="#D6AA58" stroke-width="1" opacity="0.08"/>
<circle cx="892" cy="996" r="11.7" stroke="#D6AA58" stroke-width="1" opacity="0.04"/>
<polygon points="961.0,1005.9 946.9,1020.0 927.1,1020.0 913.0,1005.9 913.0,986.1 927.1,972.0 946.9,972.0 961.0,986.1" stroke="#D6AA58" stroke-width="1" opacity="0.08"/>
<circle cx="937" cy="996" r="11.7" stroke="#D6AA58" stroke-width="1" opacity="0.04"/>
<polygon points="1006.0,1005.9 991.9,1020.0 972.1,1020.0 958.0,1005.9 958.0,986.1 972.1,972.0 991.9,972.0 1006.0,986.1" stroke="#D6AA58" stroke-width="1" opacity="0.08"/>
<circle cx="982" cy="996" r="11.7" stroke="#D6AA58" stroke-width="1" opacity="0.04"/>
<polygon points="1051.0,1005.9 1036.9,1020.0 1017.1,1020.0 1003.0,1005.9 1003.0,986.1 1017.1,972.0 1036.9,972.0 1051.0,986.1" stroke="#D6AA58" stroke-width="1" opacity="0.08"/>
<circle cx="1027" cy="996" r="11.7" stroke="#D6AA58" stroke-width="1" opacity="0.04"/>
<polygon points="849.0,1063.9 834.9,1078.0 815.1,1078.0 801.0,1063.9 801.0,1044.1 815.1,1030.0 834.9,1030.0 849.0,1044.1" stroke="#D6AA58" stroke-width="1" opacity="0.08"/>
<circle cx="825" cy="1054" r="11.7" stroke="#D6AA58" stroke-width="1" opacity="0.04"/>
<polygon points="894.0,1063.9 879.9,1078.0 860.1,1078.0 846.0,1063.9 846.0,1044.1 860.1,1030.0 879.9,1030.0 894.0,1044.1" stroke="#D6AA58" stroke-width="1" opacity="0.08"/>
<circle cx="870" cy="1054" r="11.7" stroke="#D6AA58" stroke-width="1" opacity="0.04"/>
<polygon points="939.0,1063.9 924.9,1078.0 905.1,1078.0 891.0,1063.9 891.0,1044.1 905.1,1030.0 924.9,1030.0 939.0,1044.1" stroke="#D6AA58" stroke-width="1" opacity="0.08"/>
<circle cx="915" cy="1054" r="11.7" stroke="#D6AA58" stroke-width="1" opacity="0.04"/>
<polygon points="984.0,1063.9 969.9,1078.0 950.1,1078.0 936.0,1063.9 936.0,1044.1 950.1,1030.0 969.9,1030.0 984.0,1044.1" stroke="#D6AA58" stroke-width="1" opacity="0.08"/>
<circle cx="960" cy="1054" r="11.7" stroke="#D6AA58" stroke-width="1" opacity="0.04"/>
<polygon points="1029.0,1063.9 1014.9,1078.0 995.1,1078.0 981.0,1063.9 981.0,1044.1 995.1,1030.0 1014.9,1030.0 1029.0,1044.1" stroke="#D6AA58" stroke-width="1" opacity="0.08"/>
<circle cx="1005" cy="1054" r="11.7" stroke="#D6AA58" stroke-width="1" opacity="0.04"/>
</svg>