<svg xmlns="http://www.w3.org/2000/svg" width="960" height="1080" viewBox="0 0 960 1080" fill="none">
<defs>

</defs>
<circle cx="597.1" cy="61.5" r="0.9" fill="#FFFFFF" opacity="0.17"/>
<circle cx="678.6" cy="622.0" r="1.4" fill="#FFFFFF" opacity="0.14"/>
<circle cx="414.4" cy="65.6" r="0.9" fill="#FFFFFF" opacity="0.23"/>
<circle cx="82.3" cy="211.0" r="1.2" fill="#FFFFFF" opacity="0.24"/>
<circle cx="245.2" cy="546.8" r="1.3" fill="#FFFFFF" opacity="0.12"/>
<circle cx="736.9" cy="640.4" r="1.0" fill="#FFFFFF" opacity="0.15"/>
<circle cx="864.1" cy="329.5" r="0.8" fill="#FFFFFF" opacity="0.14"/>
<circle cx="771.9" cy="559.2" r="1.3" fill="#FFFFFF" opacity="0.28"/>
<circle cx="510.4" cy="876.9" r="1.0" fill="#FFFFFF" opacity="0.24"/>
<circle cx="756.7" cy="571.9" r="1.4" fill="#FFFFFF" opacity="0.25"/>
<circle cx="651.8" cy="79.4" r="0.9" fill="#FFFFFF" opacity="0.18"/>
<circle cx="127.0" cy="240.2" r="0.8" fill="#FFFFFF" opacity="0.18"/>
<circle cx="594.0" cy="353.8" r="1.0" fill="#FFFFFF" opacity="0.17"/>
<circle cx="284.3" cy="845.5" r="1.2" fill="#FFFFFF" opacity="0.25"/>
<circle cx="203.8" cy="667.0" r="0.8" fill="#FFFFFF" opacity="0.20"/>
<circle cx="891.2" cy="590.4" r="1.1" fill="#FFFFFF" opacity="0.27"/>
<circle cx="768.0" cy="707.4" r="0.9" fill="#FFFFFF" opacity="0.13"/>
<circle cx="325.0" cy="270.3" r="0.9" fill="#FFFFFF" opacity="0.33"/>
<circle cx="796.1" cy="310.6" r="1.2" fill="#FFFFFF" opacity="0.21"/>
<circle cx="828.2" cy="434.6" r="0.9" fill="#FFFFFF" opacity="0.17"/>
<circle cx="531.5" cy="266.0" r="1.2" fill="#FFFFFF" opacity="0.32"/>
<circle cx="395.5" cy="228.6" r="1.5" fill="#FFFFFF" opacity="0.23"/>
<circle cx="136.4" cy="80.5" r="0.8" fill="#FFFFFF" opacity="0.26"/>
<circle cx="725.3" cy="403.1" r="0.8" fill="#FFFFFF" opacity="0.20"/>
<circle cx="896.7" cy="495.0" r="1.5" fill="#FFFFFF" opacity="0.31"/>
<circle cx="69.6" cy="659.8" r="1.2" fill="#FFFFFF" opacity="0.24"/>
<circle cx="284.1" cy="591.2" r="0.8" fill="#FFFFFF" opacity="0.22"/>
<circle cx="441.1" cy="860.3" r="1.4" fill="#FFFFFF" opacity="0.18"/>
<circle cx="480.5" cy="193.6" r="1.4" fill="#FFFFFF" opacity="0.31"/>
<circle cx="310.7" cy="589.5" r="1.2" fill="#FFFFFF" opacity="0.15"/>
<circle cx="700.5" cy="503.9" r="1.3" fill="#FFFFFF" opacity="0.24"/>
<circle cx="60.5" cy="318.8" r="0.7" fill="#FFFFFF" opacity="0.32"/>
<circle cx="798.1" cy="755.2" r="0.9" fill="#FFFFFF" opacity="0.13"/>
<circle cx="797.5" cy="854.4" r="0.8" fill="#FFFFFF" opacity="0.23"/>
<circle cx="118.1" cy="694.1" r="1.3" fill="#FFFFFF" opacity="0.15"/>
<circle cx="459.2" cy="512.8" r="0.9" fill="#FFFFFF" opacity="0.31"/>
<circle cx="415.4" cy="222.1" r="1.1" fill="#FFFFFF" opacity="0.28"/>
<circle cx="229.0" cy="308.1" r="1.5" fill="#FFFFFF" opacity="0.26"/>
<circle cx="428.0" cy="485.1" r="0.8" fill="#FFFFFF" opacity="0.17"/>
<circle cx="344.0" cy="545.9" r="0.9" fill="#FFFFFF" opacity="0.17"/>
<circle cx="119.6" cy="582.7" r="0.9" fill="#FFFFFF" opacity="0.32"/>
<circle cx="782.1" cy="100.9" r="0.9" fill="#FFFFFF" opacity="0.27"/>
<circle cx="240.0" cy="153.8" r="1.4" fill="#FFFFFF" opacity="0.25"/>
<circle cx="457.0" cy="714.8" r="1.3" fill="#FFFFFF" opacity="0.16"/>
<circle cx="141.4" cy="410.7" r="1.0" fill="#FFFFFF" opacity="0.22"/>
<circle cx="672.4" cy="619.1" r="1.5" fill="#FFFFFF" opacity="0.14"/>
<circle cx="398.2" cy="331.8" r="1.4" fill="#FFFFFF" opacity="0.17"/>
<circle cx="219.8" cy="425.8" r="1.0" fill="#FFFFFF" opacity="0.18"/>
<circle cx="269.8" cy="834.0" r="1.1" fill="#FFFFFF" opacity="0.31"/>
<circle cx="522.3" cy="83.5" r="1.5" fill="#FFFFFF" opacity="0.30"/>
<circle cx="874.0" cy="836.7" r="1.4" fill="#FFFFFF" opacity="0.16"/>
<circle cx="467.9" cy="223.8" r="1.0" fill="#FFFFFF" opacity="0.13"/>
<circle cx="378.3" cy="887.4" r="0.9" fill="#FFFFFF" opacity="0.29"/>
<circle cx="442.2" cy="403.8" r="1.5" fill="#FFFFFF" opacity="0.34"/>
<circle cx="526.8" cy="657.8" r="0.8" fill="#FFFFFF" opacity="0.19"/>
<circle cx="873.7" cy="538.1" r="1.1" fill="#FFFFFF" opacity="0.28"/>
<circle cx="108.0" cy="542.4" r="1.1" fill="#FFFFFF" opacity="0.31"/>
<circle cx="192.2" cy="866.3" r="0.8" fill="#FFFFFF" opacity="0.16"/>
<circle cx="559.8" cy="620.7" r="0.9" fill="#FFFFFF" opacity="0.15"/>
<circle cx="807.8" cy="251.7" r="1.2" fill="#FFFFFF" opacity="0.26"/>
<path d="M423.8 500.2 l4 -4 M423.8 500.2 l-4 4" stroke="#D6AA58" stroke-width="1" opacity="0.08"/>
<path d="M508.7 753.0 l4 -4 M508.7 753.0 l-4 4" stroke="#D6AA58" stroke-width="1" opacity="0.08"/>
<path d="M247.5 595.7 l4 -4 M247.5 595.7 l-4 4" stroke="#D6AA58" stroke-width="1" opacity="0.08"/>
<path d="M275.7 365.0 l4 -4 M275.7 365.0 l-4 4" stroke="#D6AA58" stroke-width="1" opacity="0.08"/>
<path d="M630.8 296.0 l4 -4 M630.8 296.0 l-4 4" stroke="#D6AA58" stroke-width="1" opacity="0.08"/>
<path d="M339.3 621.3 l4 -4 M339.3 621.3 l-4 4" stroke="#D6AA58" stroke-width="1" opacity="0.08"/>
<path d="M139.5 410.0 l4 -4 M139.5 410.0 l-4 4" stroke="#D6AA58" stroke-width="1" opacity="0.08"/>
<path d="M898.7 797.2 l4 -4 M898.7 797.2 l-4 4" stroke="#D6AA58" stroke-width="1" opacity="0.08"/>
<path d="M140.1 233.5 l4 -4 M140.1 233.5 l-4 4" stroke="#D6AA58" stroke-width="1" opacity="0.08"/>
<path d="M297.5 751.9 l4 -4 M297.5 751.9 l-4 4" stroke="#D6AA58" stroke-width="1" opacity="0.08"/>
<path d="M802.3 713.1 l4 -4 M802.3 713.1 l-4 4" stroke="#D6AA58" stroke-width="1" opacity="0.08"/>
<path d="M383.0 193.6 l4 -4 M383.0 193.6 l-4 4" stroke="#D6AA58" stroke-width="1" opacity="0.08"/>
<path d="M763.7 586.5 l4 -4 M763.7 586.5 l-4 4" stroke="#D6AA58" stroke-width="1" opacity="0.08"/>
<path d="M581.6 790.8 l4 -4 M581.6 790.8 l-4 4" stroke="#D6AA58" stroke-width="1" opacity="0.08"/>
<path d="M616.3 85.6 l4 -4 M616.3 85.6 l-4 4" stroke="#D6AA58" stroke-width="1" opacity="0.08"/>
<path d="M750.0 295.6 l4 -4 M750.0 295.6 l-4 4" stroke="#D6AA58" stroke-width="1" opacity="0.08"/>
<path d="M624.0 756.0 l4 -4 M624.0 756.0 l-4 4" stroke="#D6AA58" stroke-width="1" opacity="0.08"/>
<path d="M190.1 163.1 l4 -4 M190.1 163.1 l-4 4" stroke="#D6AA58" stroke-width="1" opacity="0.08"/>
</svg>