<svg xmlns="http://www.w3.org/2000/svg" width="960" height="1080" viewBox="0 0 960 1080" fill="none">
<defs>

</defs>
<polygon points="15.4,-29.0 -14.0,-12.0 -43.4,-29.0 -43.4,-63.0 -14.0,-80.0 15.4,-63.0" stroke="#D6AA58" stroke-width="1" opacity="0.061"/>
<polygon points="-6.6,35.0 -36.0,52.0 -65.4,35.0 -65.4,1.0 -36.0,-16.0 -6.6,1.0" stroke="#D6AA58" stroke-width="1" opacity="0.056"/>
<polygon points="15.4,99.0 -14.0,116.0 -43.4,99.0 -43.4,65.0 -14.0,48.0 15.4,65.0" stroke="#D6AA58" stroke-width="1" opacity="0.063"/>
<polygon points="-6.6,163.0 -36.0,180.0 -65.4,163.0 -65.4,129.0 -36.0,112.0 -6.6,129.0" stroke="#D6AA58" stroke-width="1" opacity="0.047"/>
<polygon points="15.4,227.0 -14.0,244.0 -43.4,227.0 -43.4,193.0 -14.0,176.0 15.4,193.0" stroke="#D6AA58" stroke-width="1" opacity="0.062"/>
<polygon points="-6.6,291.0 -36.0,308.0 -65.4,291.0 -65.4,257.0 -36.0,240.0 -6.6,257.0" stroke="#D6AA58" stroke-width="1" opacity="0.054"/>
<polygon points="15.4,355.0 -14.0,372.0 -43.4,355.0 -43.4,321.0 -14.0,304.0 15.4,321.0" stroke="#D6AA58" stroke-width="1" opacity="0.060"/>
<polygon points="-6.6,419.0 -36.0,436.0 -65.4,419.0 -65.4,385.0 -36.0,368.0 -6.6,385.0" stroke="#D6AA58" stroke-width="1" opacity="0.049"/>
<polygon points="15.4,483.0 -14.0,500.0 -43.4,483.0 -43.4,449.0 -14.0,432.0 15.4,449.0" stroke="#D6AA58" stroke-width="1" opacity="0.054"/>
<polygon points="-6.6,547.0 -36.0,564.0 -65.4,547.0 -65.4,513.0 -36.0,496.0 -6.6,513.0" stroke="#D6AA58" stroke-width="1" opacity="0.052"/>
<polygon points="15.4,611.0 -14.0,628.0 -43.4,611.0 -43.4,577.0 -14.0,560.0 15.4,577.0" stroke="#D6AA58" stroke-width="1" opacity="0.053"/>
<polygon points="-6.6,675.0 -36.0,692.0 -65.4,675.0 -65.4,641.0 -36.0,624.0 -6.6,641.0" stroke="#D6AA58" stroke-width="1" opacity="0.063"/>
<polygon points="15.4,739.0 -14.0,756.0 -43.4,739.0 -43.4,705.0 -14.0,688.0 15.4,705.0" stroke="#D6AA58" stroke-width="1" opacity="0.057"/>
<polygon points="-6.6,803.0 -36.0,820.0 -65.4,803.0 -65.4,769.0 -36.0,752.0 -6.6,769.0" stroke="#D6AA58" stroke-width="1" opacity="0.069"/>
<polygon points="15.4,867.0 -14.0,884.0 -43.4,867.0 -43.4,833.0 -14.0,816.0 15.4,833.0" stroke="#D6AA58" stroke-width="1" opacity="0.060"/>
<polygon points="-6.6,931.0 -36.0,948.0 -65.4,931.0 -65.4,897.0 -36.0,880.0 -6.6,897.0" stroke="#D6AA58" stroke-width="1" opacity="0.051"/>
<polygon points="15.4,995.0 -14.0,1012.0 -43.4,995.0 -43.4,961.0 -14.0,944.0 15.4,961.0" stroke="#D6AA58" stroke-width="1" opacity="0.060"/>
<polygon points="-6.6,1059.0 -36.0,1076.0 -65.4,1059.0 -65.4,1025.0 -36.0,1008.0 -6.6,1025.0" stroke="#D6AA58" stroke-width="1" opacity="0.058"/>
<polygon points="15.4,1123.0 -14.0,1140.0 -43.4,1123.0 -43.4,1089.0 -14.0,1072.0 15.4,1089.0" stroke="#D6AA58" stroke-width="1" opacity="0.049"/>
<polygon points="61.4,-29.0 32.0,-12.0 2.6,-29.0 2.6,-63.0 32.0,-80.0 61.4,-63.0" stroke="#D6AA58" stroke-width="1" opacity="0.058"/>
<polygon points="39.4,35.0 10.0,52.0 -19.4,35.0 -19.4,1.0 10.0,-16.0 39.4,1.0" stroke="#D6AA58" stroke-width="1" opacity="0.045"/>
<polygon points="61.4,99.0 32.0,116.0 2.6,99.0 2.6,65.0 32.0,48.0 61.4,65.0" stroke="#D6AA58" stroke-width="1" opacity="0.054"/>
<polygon points="39.4,163.0 10.0,180.0 -19.4,163.0 -19.4,129.0 10.0,112.0 39.4,129.0" stroke="#D6AA58" stroke-width="1" opacity="0.058"/>
<polygon points="61.4,227.0 32.0,244.0 2.6,227.0 2.6,193.0 32.0,176.0 61.4,193.0" stroke="#D6AA58" stroke-width="1" opacity="0.062"/>
<polygon points="39.4,291.0 10.0,308.0 -19.4,291.0 -19.4,257.0 10.0,240.0 39.4,257.0" stroke="#D6AA58" stroke-width="1" opacity="0.069"/>
<polygon points="61.4,355.0 32.0,372.0 2.6,355.0 2.6,321.0 32.0,304.0 61.4,321.0" stroke="#D6AA58" stroke-width="1" opacity="0.060"/>
<polygon points="39.4,419.0 10.0,436.0 -19.4,419.0 -19.4,385.0 10.0,368.0 39.4,385.0" stroke="#D6AA58" stroke-width="1" opacity="0.046"/>
<polygon points="61.4,483.0 32.0,500.0 2.6,483.0 2.6,449.0 32.0,432.0 61.4,449.0" stroke="#D6AA58" stroke-width="1" opacity="0.057"/>
<polygon points="39.4,547.0 10.0,564.0 -19.4,547.0 -19.4,513.0 10.0,496.0 39.4,513.0" stroke="#D6AA58" stroke-width="1" opacity="0.051"/>
<polygon points="61.4,611.0 32.0,628.0 2.6,611.0 2.6,577.0 32.0,560.0 61.4,577.0" stroke="#D6AA58" stroke-width="1" opacity="0.064"/>
<polygon points="39.4,675.0 10.0,692.0 -19.4,675.0 -19.4,641.0 10.0,624.0 39.4,641.0" stroke="#D6AA58" stroke-width="1" opacity="0.067"/>
<polygon points="61.4,739.0 32.0,756.0 2.6,739.0 2.6,705.0 32.0,688.0 61.4,705.0" stroke="#D6AA58" stroke-width="1" opacity="0.047"/>
<polygon points="39.4,803.0 10.0,820.0 -19.4,803.0 -19.4,769.0 10.0,752.0 39.4,769.0" stroke="#D6AA58" stroke-width="1" opacity="0.064"/>
<polygon points="61.4,867.0 32.0,884.0 2.6,867.0 2.6,833.0 32.0,816.0 61.4,833.0" stroke="#D6AA58" stroke-width="1" opacity="0.052"/>
<polygon points="39.4,931.0 10.0,948.0 -19.4,931.0 -19.4,897.0 10.0,880.0 39.4,897.0" stroke="#D6AA58" stroke-width="1" opacity="0.050"/>
<polygon points="61.4,995.0 32.0,1012.0 2.6,995.0 2.6,961.0 32.0,944.0 61.4,961.0" stroke="#D6AA58" stroke-width="1" opacity="0.056"/>
<polygon points="39.4,1059.0 10.0,1076.0 -19.4,1059.0 -19.4,1025.0 10.0,1008.0 39.4,1025.0" stroke="#D6AA58" stroke-width="1" opacity="0.055"/>
<polygon points="61.4,1123.0 32.0,1140.0 2.6,1123.0 2.6,1089.0 32.0,1072.0 61.4,1089.0" stroke="#D6AA58" stroke-width="1" opacity="0.052"/>
<polygon points="107.4,-29.0 78.0,-12.0 48.6,-29.0 48.6,-63.0 78.0,-80.0 107.4,-63.0" stroke="#D6AA58" stroke-width="1" opacity="0.052"/>
<polygon points="85.4,35.0 56.0,52.0 26.6,35.0 26.6,1.0 56.0,-16.0 85.4,1.0" stroke="#D6AA58" stroke-width="1" opacity="0.056"/>
<polygon points="107.4,99.0 78.0,116.0 48.6,99.0 48.6,65.0 78.0,48.0 107.4,65.0" stroke="#D6AA58" stroke-width="1" opacity="0.062"/>
<polygon points="85.4,163.0 56.0,180.0 26.6,163.0 26.6,129.0 56.0,112.0 85.4,129.0" stroke="#D6AA58" stroke-width="1" opacity="0.049"/>
<polygon points="107.4,227.0 78.0,244.0 48.6,227.0 48.6,193.0 78.0,176.0 107.4,193.0" stroke="#D6AA58" stroke-width="1" opacity="0.054"/>
<polygon points="85.4,291.0 56.0,308.0 26.6,291.0 26.6,257.0 56.0,240.0 85.4,257.0" stroke="#D6AA58" stroke-width="1" opacity="0.051"/>
<polygon points="107.4,355.0 78.0,372.0 48.6,355.0 48.6,321.0 78.0,304.0 107.4,321.0" stroke="#D6AA58" stroke-width="1" opacity="0.063"/>
<polygon points="85.4,419.0 56.0,436.0 26.6,419.0 26.6,385.0 56.0,368.0 85.4,385.0" stroke="#D6AA58" stroke-width="1" opacity="0.051"/>
<polygon points="107.4,483.0 78.0,500.0 48.6,483.0 48.6,449.0 78.0,432.0 107.4,449.0" stroke="#D6AA58" stroke-width="1" opacity="0.063"/>
<polygon points="85.4,547.0 56.0,564.0 26.6,547.0 26.6,513.0 56.0,496.0 85.4,513.0" stroke="#D6AA58" stroke-width="1" opacity="0.046"/>
<polygon points="107.4,611.0 78.0,628.0 48.6,611.0 48.6,577.0 78.0,560.0 107.4,577.0" stroke="#D6AA58" stroke-width="1" opacity="0.066"/>
<polygon points="85.4,675.0 56.0,692.0 26.6,675.0 26.6,641.0 56.0,624.0 85.4,641.0" stroke="#D6AA58" stroke-width="1" opacity="0.056"/>
<polygon points="107.4,739.0 78.0,756.0 48.6,739.0 48.6,705.0 78.0,688.0 107.4,705.0" stroke="#D6AA58" stroke-width="1" opacity="0.068"/>
<polygon points="85.4,803.0 56.0,820.0 26.6,803.0 26.6,769.0 56.0,752.0 85.4,769.0" stroke="#D6AA58" stroke-width="1" opacity="0.065"/>
<polygon points="107.4,867.0 78.0,884.0 48.6,867.0 48.6,833.0 78.0,816.0 107.4,833.0" stroke="#D6AA58" stroke-width="1" opacity="0.066"/>
<polygon points="85.4,931.0 56.0,948.0 26.6,931.0 26.6,897.0 56.0,880.0 85.4,897.0" stroke="#D6AA58" stroke-width="1" opacity="0.046"/>
<polygon points="107.4,995.0 78.0,1012.0 48.6,995.0 48.6,961.0 78.0,944.0 107.4,961.0" stroke="#D6AA58" stroke-width="1" opacity="0.064"/>
<polygon points="85.4,1059.0 56.0,1076.0 26.6,1059.0 26.6,1025.0 56.0,1008.0 85.4,1025.0" stroke="#D6AA58" stroke-width="1" opacity="0.058"/>
<polygon points="107.4,1123.0 78.0,1140.0 48.6,1123.0 48.6,1089.0 78.0,1072.0 107.4,1089.0" stroke="#D6AA58" stroke-width="1" opacity="0.067"/>
<polygon points="153.4,-29.0 124.0,-12.0 94.6,-29.0 94.6,-63.0 124.0,-80.0 153.4,-63.0" stroke="#D6AA58" stroke-width="1" opacity="0.059"/>
<polygon points="131.4,35.0 102.0,52.0 72.6,35.0 72.6,1.0 102.0,-16.0 131.4,1.0" stroke="#D6AA58" stroke-width="1" opacity="0.054"/>
<polygon points="153.4,99.0 124.0,116.0 94.6,99.0 94.6,65.0 124.0,48.0 153.4,65.0" stroke="#D6AA58" stroke-width="1" opacity="0.068"/>
<polygon points="131.4,163.0 102.0,180.0 72.6,163.0 72.6,129.0 102.0,112.0 131.4,129.0" stroke="#D6AA58" stroke-width="1" opacity="0.070"/>
<polygon points="153.4,227.0 124.0,244.0 94.6,227.0 94.6,193.0 124.0,176.0 153.4,193.0" stroke="#D6AA58" stroke-width="1" opacity="0.051"/>
<polygon points="131.4,291.0 102.0,308.0 72.6,291.0 72.6,257.0 102.0,240.0 131.4,257.0" stroke="#D6AA58" stroke-width="1" opacity="0.049"/>
<polygon points="153.4,355.0 124.0,372.0 94.6,355.0 94.6,321.0 124.0,304.0 153.4,321.0" stroke="#D6AA58" stroke-width="1" opacity="0.056"/>
<polygon points="131.4,419.0 102.0,436.0 72.6,419.0 72.6,385.0 102.0,368.0 131.4,385.0" stroke="#D6AA58" stroke-width="1" opacity="0.061"/>
<polygon points="153.4,483.0 124.0,500.0 94.6,483.0 94.6,449.0 124.0,432.0 153.4,449.0" stroke="#D6AA58" stroke-width="1" opacity="0.049"/>
<polygon points="131.4,547.0 102.0,564.0 72.6,547.0 72.6,513.0 102.0,496.0 131.4,513.0" stroke="#D6AA58" stroke-width="1" opacity="0.060"/>
<polygon points="153.4,611.0 124.0,628.0 94.6,611.0 94.6,577.0 124.0,560.0 153.4,577.0" stroke="#D6AA58" stroke-width="1" opacity="0.059"/>
<polygon points="131.4,675.0 102.0,692.0 72.6,675.0 72.6,641.0 102.0,624.0 131.4,641.0" stroke="#D6AA58" stroke-width="1" opacity="0.065"/>
<polygon points="153.4,739.0 124.0,756.0 94.6,739.0 94.6,705.0 124.0,688.0 153.4,705.0" stroke="#D6AA58" stroke-width="1" opacity="0.049"/>
<polygon points="131.4,803.0 102.0,820.0 72.6,803.0 72.6,769.0 102.0,752.0 131.4,769.0" stroke="#D6AA58" stroke-width="1" opacity="0.049"/>
<polygon points="153.4,867.0 124.0,884.0 94.6,867.0 94.6,833.0 124.0,816.0 153.4,833.0" stroke="#D6AA58" stroke-width="1" opacity="0.058"/>
<polygon points="131.4,931.0 102.0,948.0 72.6,931.0 72.6,897.0 102.0,880.0 131.4,897.0" stroke="#D6AA58" stroke-width="1" opacity="0.064"/>
<polygon points="153.4,995.0 124.0,1012.0 94.6,995.0 94.6,961.0 124.0,944.0 153.4,961.0" stroke="#D6AA58" stroke-width="1" opacity="0.060"/>
<polygon points="131.4,1059.0 102.0,1076.0 72.6,1059.0 72.6,1025.0 102.0,1008.0 131.4,1025.0" stroke="#D6AA58" stroke-width="1" opacity="0.064"/>
<polygon points="153.4,1123.0 124.0,1140.0 94.6,1123.0 94.6,1089.0 124.0,1072.0 153.4,1089.0" stroke="#D6AA58" stroke-width="1" opacity="0.052"/>
<polygon points="199.4,-29.0 170.0,-12.0 140.6,-29.0 140.6,-63.0 170.0,-80.0 199.4,-63.0" stroke="#D6AA58" stroke-width="1" opacity="0.046"/>
<polygon points="177.4,35.0 148.0,52.0 118.6,35.0 118.6,1.0 148.0,-16.0 177.4,1.0" stroke="#D6AA58" stroke-width="1" opacity="0.062"/>
<polygon points="199.4,99.0 170.0,116.0 140.6,99.0 140.6,65.0 170.0,48.0 199.4,65.0" stroke="#D6AA58" stroke-width="1" opacity="0.061"/>
<polygon points="177.4,163.0 148.0,180.0 118.6,163.0 118.6,129.0 148.0,112.0 177.4,129.0" stroke="#D6AA58" stroke-width="1" opacity="0.046"/>
<polygon points="199.4,227.0 170.0,244.0 140.6,227.0 140.6,193.0 170.0,176.0 199.4,193.0" stroke="#D6AA58" stroke-width="1" opacity="0.047"/>
<polygon points="177.4,291.0 148.0,308.0 118.6,291.0 118.6,257.0 148.0,240.0 177.4,257.0" stroke="#D6AA58" stroke-width="1" opacity="0.062"/>
<polygon points="199.4,355.0 170.0,372.0 140.6,355.0 140.6,321.0 170.0,304.0 199.4,321.0" stroke="#D6AA58" stroke-width="1" opacity="0.062"/>
<polygon points="177.4,419.0 148.0,436.0 118.6,419.0 118.6,385.0 148.0,368.0 177.4,385.0" stroke="#D6AA58" stroke-width="1" opacity="0.050"/>
<polygon points="199.4,483.0 170.0,500.0 140.6,483.0 140.6,449.0 170.0,432.0 199.4,449.0" stroke="#D6AA58" stroke-width="1" opacity="0.052"/>
<polygon points="177.4,547.0 148.0,564.0 118.6,547.0 118.6,513.0 148.0,496.0 177.4,513.0" stroke="#D6AA58" stroke-width="1" opacity="0.055"/>
<polygon points="199.4,611.0 170.0,628.0 140.6,611.0 140.6,577.0 170.0,560.0 199.4,577.0" stroke="#D6AA58" stroke-width="1" opacity="0.046"/>
<polygon points="177.4,675.0 148.0,692.0 118.6,675.0 118.6,641.0 148.0,624.0 177.4,641.0" stroke="#D6AA58" stroke-width="1" opacity="0.053"/>
<polygon points="199.4,739.0 170.0,756.0 140.6,739.0 140.6,705.0 170.0,688.0 199.4,705.0" stroke="#D6AA58" stroke-width="1" opacity="0.051"/>
<polygon points="177.4,803.0 148.0,820.0 118.6,803.0 118.6,769.0 148.0,752.0 177.4,769.0" stroke="#D6AA58" stroke-width="1" opacity="0.046"/>
<polygon points="199.4,867.0 170.0,884.0 140.6,867.0 140.6,833.0 170.0,816.0 199.4,833.0" stroke="#D6AA58" stroke-width="1" opacity="0.058"/>
<polygon points="177.4,931.0 148.0,948.0 118.6,931.0 118.6,897.0 148.0,880.0 177.4,897.0" stroke="#D6AA58" stroke-width="1" opacity="0.069"/>
<polygon points="199.4,995.0 170.0,1012.0 140.6,995.0 140.6,961.0 170.0,944.0 199.4,961.0" stroke="#D6AA58" stroke-width="1" opacity="0.047"/>
<polygon points="177.4,1059.0 148.0,1076.0 118.6,1059.0 118.6,1025.0 148.0,1008.0 177.4,1025.0" stroke="#D6AA58" stroke-width="1" opacity="0.062"/>
<polygon points="199.4,1123.0 170.0,1140.0 140.6,1123.0 140.6,1089.0 170.0,1072.0 199.4,1089.0" stroke="#D6AA58" stroke-width="1" opacity="0.060"/>
<line x1="-220" y1="-120" x2="-840" y2="1180" stroke="#D6AA58" stroke-width="3" opacity="0.08"/>
<line x1="40" y1="-120" x2="-580" y2="1180" stroke="#D6AA58" stroke-width="3" opacity="0.06"/>
<line x1="430" y1="-120" x2="-190" y2="1180" stroke="#D6AA58" stroke-width="3" opacity="0.08"/>
<line x1="820" y1="-120" x2="200" y2="1180" stroke="#D6AA58" stroke-width="3" opacity="0.05"/>
<line x1="1180" y1="-120" x2="560" y2="1180" stroke="#D6AA58" stroke-width="3" opacity="0.04"/>
<line x1="0" y1="0" x2="0" y2="1080" stroke="#FFFFFF" stroke-width="1" opacity="0.018"/>
<line x1="80" y1="0" x2="80" y2="1080" stroke="#FFFFFF" stroke-width="1" opacity="0.018"/>
<line x1="160" y1="0" x2="160" y2="1080" stroke="#FFFFFF" stroke-width="1" opacity="0.018"/>
<line x1="240" y1="0" x2="240" y2="1080" stroke="#FFFFFF" stroke-width="1" opacity="0.018"/>
<line x1="320" y1="0" x2="320" y2="1080" stroke="#FFFFFF" stroke-width="1" opacity="0.018"/>
<line x1="400" y1="0" x2="400" y2="1080" stroke="#FFFFFF" stroke-width="1" opacity="0.018"/>
<line x1="480" y1="0" x2="480" y2="1080" stroke="#FFFFFF" stroke-width="1" opacity="0.018"/>
<line x1="560" y1="0" x2="560" y2="1080" stroke="#FFFFFF" stroke-width="1" opacity="0.018"/>
<line x1="640" y1="0" x2="640" y2="1080" stroke="#FFFFFF" stroke-width="1" opacity="0.018"/>
<line x1="720" y1="0" x2="720" y2="1080" stroke="#FFFFFF" stroke-width="1" opacity="0.018"/>
<line x1="800" y1="0" x2="800" y2="1080" stroke="#FFFFFF" stroke-width="1" opacity="0.018"/>
<line x1="880" y1="0" x2="880" y2="1080" stroke="#FFFFFF" stroke-width="1" opacity="0.018"/>
<line x1="960" y1="0" x2="960" y2="1080" stroke="#FFFFFF" stroke-width="1" opacity="0.018"/>
<line x1="0" y1="0" x2="960" y2="0" stroke="#FFFFFF" stroke-width="1" opacity="0.012"/>
<line x1="0" y1="80" x2="960" y2="80" stroke="#FFFFFF" stroke-width="1" opacity="0.012"/>
<line x1="0" y1="160" x2="960" y2="160" stroke="#FFFFFF" stroke-width="1" opacity="0.012"/>
<line x1="0" y1="240" x2="960" y2="240" stroke="#FFFFFF" stroke-width="1" opacity="0.012"/>
<line x1="0" y1="320" x2="960" y2="320" stroke="#FFFFFF" stroke-width="1" opacity="0.012"/>
<line x1="0" y1="400" x2="960" y2="400" stroke="#FFFFFF" stroke-width="1" opacity="0.012"/>
<line x1="0" y1="480" x2="960" y2="480" stroke="#FFFFFF" stroke-width="1" opacity="0.012"/>
<line x1="0" y1="560" x2="960" y2="560" stroke="#FFFFFF" stroke-width="1" opacity="0.012"/>
<line x1="0" y1="640" x2="960" y2="640" stroke="#FFFFFF" stroke-width="1" opacity="0.012"/>
<line x1="0" y1="720" x2="960" y2="720" stroke="#FFFFFF" stroke-width="1" opacity="0.012"/>
<line x1="0" y1="800" x2="960" y2="800" stroke="#FFFFFF" stroke-width="1" opacity="0.012"/>
<line x1="0" y1="880" x2="960" y2="880" stroke="#FFFFFF" stroke-width="1" opacity="0.012"/>
<line x1="0" y1="960" x2="960" y2="960" stroke="#FFFFFF" stroke-width="1" opacity="0.012"/>
<line x1="0" y1="1040" x2="960" y2="1040" stroke="#FFFFFF" stroke-width="1" opacity="0.012"/>
</svg>