<svg xmlns="http://www.w3.org/2000/svg" width="960" height="1080" viewBox="0 0 960 1080" fill="none">
<defs>

<filter id="nodeGlow" x="-100%" y="-100%" width="300%" height="300%">
  <feGaussianBlur stdDeviation="4" result="blur"/>
  <feMerge><feMergeNode in="blur"/><feMergeNode in="SourceGraphic"/></feMerge>
</filter>
<linearGradient id="arcGold" x1="0" y1="0" x2="1" y2="0">
  <stop offset="0%" stop-color="#F6D88D" stop-opacity="0"/>
  <stop offset="35%" stop-color="#D6AA58" stop-opacity="0.72"/>
  <stop offset="100%" stop-color="#F6D88D" stop-opacity="0"/>
</linearGradient>

</defs>
<path d="M 165.0 285.0 Q 317.5 121.6 470.0 255.0" stroke="url(#arcGold)" stroke-width="1.40" opacity="0.65"/>
<path d="M 165.0 285.0 Q 452.5 123.6 740.0 250.0" stroke="url(#arcGold)" stroke-width="1.76" opacity="0.65"/>
<path d="M 300.0 330.0 Q 457.5 125.8 615.0 280.0" stroke="url(#arcGold)" stroke-width="1.77" opacity="0.65"/>
<path d="M 470.0 255.0 Q 605.0 98.1 740.0 250.0" stroke="url(#arcGold)" stroke-width="1.50" opacity="0.65"/>
<path d="M 470.0 255.0 Q 495.0 81.8 520.0 395.0" stroke="url(#arcGold)" stroke-width="1.34" opacity="0.65"/>
<path d="M 615.0 280.0 Q 637.5 153.0 660.0 390.0" stroke="url(#arcGold)" stroke-width="1.63" opacity="0.65"/>
<path d="M 740.0 250.0 Q 630.0 125.8 520.0 395.0" stroke="url(#arcGold)" stroke-width="1.18" opacity="0.65"/>
<path d="M 300.0 330.0 Q 410.0 177.7 520.0 395.0" stroke="url(#arcGold)" stroke-width="1.79" opacity="0.65"/>
<path d="M 660.0 390.0 Q 412.5 160.5 165.0 285.0" stroke="url(#arcGold)" stroke-width="1.41" opacity="0.65"/>
<circle cx="165" cy="285" r="12" fill="#F2D08A" opacity="0.18" filter="url(#nodeGlow)"/>
<circle cx="165" cy="285" r="4.6" fill="#FFF1BD" opacity="0.96"/>
<circle cx="165" cy="285" r="2.1" fill="#FFFFFF" opacity="0.9"/>
<circle cx="300" cy="330" r="12" fill="#F2D08A" opacity="0.18" filter="url(#nodeGlow)"/>
<circle cx="300" cy="330" r="4.6" fill="#FFF1BD" opacity="0.96"/>
<circle cx="300" cy="330" r="2.1" fill="#FFFFFF" opacity="0.9"/>
<circle cx="470" cy="255" r="12" fill="#F2D08A" opacity="0.18" filter="url(#nodeGlow)"/>
<circle cx="470" cy="255" r="4.6" fill="#FFF1BD" opacity="0.96"/>
<circle cx="470" cy="255" r="2.1" fill="#FFFFFF" opacity="0.9"/>
<circle cx="615" cy="280" r="12" fill="#F2D08A" opacity="0.18" filter="url(#nodeGlow)"/>
<circle cx="615" cy="280" r="4.6" fill="#FFF1BD" opacity="0.96"/>
<circle cx="615" cy="280" r="2.1" fill="#FFFFFF" opacity="0.9"/>
<circle cx="740" cy="250" r="12" fill="#F2D08A" opacity="0.18" filter="url(#nodeGlow)"/>
<circle cx="740" cy="250" r="4.6" fill="#FFF1BD" opacity="0.96"/>
<circle cx="740" cy="250" r="2.1" fill="#FFFFFF" opacity="0.9"/>
<circle cx="660" cy="390" r="12" fill="#F2D08A" opacity="0.18" filter="url(#nodeGlow)"/>
<circle cx="660" cy="390" r="4.6" fill="#FFF1BD" opacity="0.96"/>
<circle cx="660" cy="390" r="2.1" fill="#FFFFFF" opacity="0.9"/>
<circle cx="520" cy="395" r="12" fill="#F2D08A" opacity="0.18" filter="url(#nodeGlow)"/>
<circle cx="520" cy="395" r="4.6" fill="#FFF1BD" opacity="0.96"/>
<circle cx="520" cy="395" r="2.1" fill="#FFFFFF" opacity="0.9"/>
<circle cx="543.2" cy="263.6" r="1.4" fill="#F2D08A" opacity="0.39"/>
<circle cx="483.9" cy="258.0" r="1.4" fill="#F2D08A" opacity="0.43"/>
<circle cx="754.9" cy="206.3" r="1.5" fill="#F2D08A" opacity="0.48"/>
<circle cx="339.0" cy="421.9" r="1.3" fill="#F2D08A" opacity="0.38"/>
<circle cx="596.7" cy="497.0" r="1.1" fill="#F2D08A" opacity="0.32"/>
<circle cx="714.2" cy="401.4" r="1.6" fill="#F2D08A" opacity="0.42"/>
<circle cx="580.3" cy="301.4" r="1.3" fill="#F2D08A" opacity="0.45"/>
<circle cx="516.8" cy="353.8" r="1.6" fill="#F2D08A" opacity="0.45"/>
<circle cx="217.9" cy="257.3" r="1.8" fill="#F2D08A" opacity="0.35"/>
<circle cx="775.5" cy="289.1" r="2.0" fill="#F2D08A" opacity="0.44"/>
<circle cx="228.9" cy="321.9" r="2.0" fill="#F2D08A" opacity="0.46"/>
<circle cx="742.8" cy="368.3" r="1.8" fill="#F2D08A" opacity="0.31"/>
<circle cx="727.1" cy="429.8" r="1.6" fill="#F2D08A" opacity="0.41"/>
<circle cx="383.0" cy="217.0" r="1.1" fill="#F2D08A" opacity="0.33"/>
<circle cx="743.3" cy="195.9" r="1.9" fill="#F2D08A" opacity="0.23"/>
<circle cx="786.4" cy="359.0" r="1.0" fill="#F2D08A" opacity="0.25"/>
<circle cx="208.2" cy="187.3" r="1.8" fill="#F2D08A" opacity="0.45"/>
<circle cx="465.2" cy="290.0" r="1.5" fill="#F2D08A" opacity="0.27"/>
<circle cx="880.3" cy="512.8" r="1.8" fill="#F2D08A" opacity="0.24"/>
<circle cx="579.4" cy="499.1" r="1.6" fill="#F2D08A" opacity="0.22"/>
<circle cx="427.8" cy="435.5" r="1.2" fill="#F2D08A" opacity="0.32"/>
<circle cx="369.1" cy="366.6" r="1.6" fill="#F2D08A" opacity="0.44"/>
<circle cx="465.9" cy="209.5" r="1.2" fill="#F2D08A" opacity="0.48"/>
<circle cx="668.7" cy="277.0" r="1.3" fill="#F2D08A" opacity="0.25"/>
<circle cx="793.2" cy="488.3" r="1.1" fill="#F2D08A" opacity="0.46"/>
<circle cx="162.7" cy="437.2" r="1.0" fill="#F2D08A" opacity="0.26"/>
<circle cx="845.0" cy="335.6" r="1.7" fill="#F2D08A" opacity="0.37"/>
<circle cx="476.0" cy="495.1" r="1.5" fill="#F2D08A" opacity="0.27"/>
</svg>