<svg xmlns="http://www.w3.org/2000/svg" width="960" height="1080" viewBox="0 0 960 1080" fill="none">
<defs>
<filter id="pGlow" x="-100%" y="-100%" width="300%" height="300%"><feGaussianBlur stdDeviation="2"/></filter>
</defs>
<circle cx="708.9" cy="450.5" r="0.9" fill="#F2D08A" opacity="0.268"/>
<circle cx="65.2" cy="672.5" r="0.7" fill="#F2D08A" opacity="0.195"/>
<circle cx="750.4" cy="94.1" r="0.9" fill="#F2D08A" opacity="0.195"/>
<circle cx="136.2" cy="273.1" r="1.5" fill="#F2D08A" opacity="0.136"/>
<circle cx="197.4" cy="357.6" r="1.2" fill="#F2D08A" opacity="0.193"/>
<circle cx="568.6" cy="512.5" r="0.9" fill="#F2D08A" opacity="0.076"/>
<circle cx="126.3" cy="333.5" r="1.5" fill="#F2D08A" opacity="0.120"/>
<circle cx="61.4" cy="583.2" r="1.2" fill="#F2D08A" opacity="0.119"/>
<circle cx="366.6" cy="387.0" r="1.5" fill="#F2D08A" opacity="0.078"/>
<circle cx="156.5" cy="770.2" r="0.7" fill="#F2D08A" opacity="0.053"/>
<circle cx="228.4" cy="356.1" r="1.5" fill="#F2D08A" opacity="0.241"/>
<circle cx="617.6" cy="185.5" r="1.5" fill="#F2D08A" opacity="0.211"/>
<circle cx="591.1" cy="394.0" r="0.7" fill="#F2D08A" opacity="0.154"/>
<circle cx="444.0" cy="756.5" r="1.2" fill="#F2D08A" opacity="0.118"/>
<circle cx="878.3" cy="445.2" r="1.2" fill="#F2D08A" opacity="0.082"/>
<circle cx="716.9" cy="193.3" r="0.9" fill="#F2D08A" opacity="0.071"/>
<circle cx="45.4" cy="651.9" r="1.5" fill="#F2D08A" opacity="0.194"/>
<circle cx="795.7" cy="343.4" r="1.2" fill="#F2D08A" opacity="0.250"/>
<circle cx="186.1" cy="795.3" r="1.5" fill="#F2D08A" opacity="0.101"/>
<circle cx="512.6" cy="512.9" r="0.9" fill="#F2D08A" opacity="0.054"/>
<circle cx="649.4" cy="384.5" r="1.5" fill="#F2D08A" opacity="0.259"/>
<circle cx="460.6" cy="101.1" r="1.5" fill="#F2D08A" opacity="0.214"/>
<circle cx="442.1" cy="587.8" r="1.2" fill="#F2D08A" opacity="0.094"/>
<circle cx="260.3" cy="314.9" r="1.5" fill="#F2D08A" opacity="0.082"/>
<circle cx="812.5" cy="164.4" r="0.9" fill="#F2D08A" opacity="0.190"/>
<circle cx="234.8" cy="62.2" r="1.5" fill="#F2D08A" opacity="0.189"/>
<circle cx="433.0" cy="689.3" r="1.2" fill="#F2D08A" opacity="0.164"/>
<circle cx="377.5" cy="453.7" r="0.9" fill="#F2D08A" opacity="0.072"/>
<circle cx="722.7" cy="465.7" r="0.9" fill="#F2D08A" opacity="0.075"/>
<circle cx="485.2" cy="431.5" r="0.7" fill="#F2D08A" opacity="0.065"/>
<circle cx="864.9" cy="410.9" r="1.5" fill="#F2D08A" opacity="0.208"/>
<circle cx="490.2" cy="616.1" r="1.2" fill="#F2D08A" opacity="0.128"/>
<circle cx="559.8" cy="100.6" r="1.2" fill="#F2D08A" opacity="0.158"/>
<circle cx="111.2" cy="466.1" r="0.7" fill="#F2D08A" opacity="0.194"/>
<circle cx="324.2" cy="76.9" r="0.7" fill="#F2D08A" opacity="0.270"/>
<circle cx="448.4" cy="411.4" r="1.2" fill="#F2D08A" opacity="0.271"/>
<circle cx="301.0" cy="160.8" r="0.9" fill="#F2D08A" opacity="0.192"/>
<circle cx="796.6" cy="65.9" r="1.5" fill="#F2D08A" opacity="0.202"/>
<circle cx="909.2" cy="124.3" r="1.5" fill="#F2D08A" opacity="0.213"/>
<circle cx="215.5" cy="202.4" r="0.7" fill="#F2D08A" opacity="0.278"/>
<circle cx="724.4" cy="276.7" r="0.9" fill="#F2D08A" opacity="0.266"/>
<circle cx="370.4" cy="787.3" r="0.9" fill="#F2D08A" opacity="0.155"/>
<circle cx="708.7" cy="206.4" r="0.7" fill="#F2D08A" opacity="0.235"/>
<circle cx="398.3" cy="793.1" r="0.9" fill="#F2D08A" opacity="0.114"/>
<circle cx="319.8" cy="547.5" r="0.9" fill="#F2D08A" opacity="0.102"/>
<circle cx="257.4" cy="78.4" r="0.9" fill="#F2D08A" opacity="0.191"/>
<circle cx="837.6" cy="448.8" r="0.7" fill="#F2D08A" opacity="0.069"/>
<circle cx="299.4" cy="440.9" r="0.9" fill="#F2D08A" opacity="0.088"/>
<circle cx="85.3" cy="145.5" r="1.5" fill="#F2D08A" opacity="0.206"/>
<circle cx="586.5" cy="194.5" r="0.7" fill="#F2D08A" opacity="0.053"/>
<circle cx="302.2" cy="434.7" r="1.2" fill="#F2D08A" opacity="0.061"/>
<circle cx="699.6" cy="108.8" r="0.9" fill="#F2D08A" opacity="0.068"/>
<circle cx="740.7" cy="645.8" r="0.9" fill="#F2D08A" opacity="0.191"/>
<circle cx="557.0" cy="191.0" r="0.9" fill="#F2D08A" opacity="0.151"/>
<circle cx="88.3" cy="207.3" r="0.7" fill="#F2D08A" opacity="0.120"/>
<circle cx="641.3" cy="643.5" r="0.9" fill="#F2D08A" opacity="0.090"/>
<circle cx="837.0" cy="165.5" r="0.9" fill="#F2D08A" opacity="0.084"/>
<circle cx="527.0" cy="766.9" r="1.2" fill="#F2D08A" opacity="0.069"/>
<circle cx="908.9" cy="495.9" r="1.5" fill="#F2D08A" opacity="0.251"/>
<circle cx="506.6" cy="166.3" r="0.9" fill="#F2D08A" opacity="0.240"/>
<circle cx="384.0" cy="356.4" r="0.7" fill="#F2D08A" opacity="0.103"/>
<circle cx="188.0" cy="157.3" r="1.5" fill="#F2D08A" opacity="0.246"/>
<circle cx="823.4" cy="814.4" r="1.2" fill="#F2D08A" opacity="0.181"/>
<circle cx="855.5" cy="473.0" r="0.7" fill="#F2D08A" opacity="0.218"/>
<circle cx="755.5" cy="276.0" r="0.9" fill="#F2D08A" opacity="0.207"/>
<circle cx="553.8" cy="143.0" r="0.9" fill="#F2D08A" opacity="0.085"/>
<circle cx="899.1" cy="626.6" r="1.5" fill="#F2D08A" opacity="0.187"/>
<circle cx="375.6" cy="73.5" r="0.7" fill="#F2D08A" opacity="0.101"/>
<circle cx="258.7" cy="226.2" r="0.9" fill="#F2D08A" opacity="0.189"/>
<circle cx="288.3" cy="455.8" r="0.9" fill="#F2D08A" opacity="0.112"/>
<circle cx="549.3" cy="352.8" r="0.9" fill="#F2D08A" opacity="0.056"/>
<circle cx="265.1" cy="299.1" r="1.2" fill="#F2D08A" opacity="0.113"/>
<circle cx="272.0" cy="356.2" r="0.7" fill="#F2D08A" opacity="0.184"/>
<circle cx="260.8" cy="67.7" r="1.2" fill="#F2D08A" opacity="0.250"/>
<circle cx="240.5" cy="318.3" r="0.7" fill="#F2D08A" opacity="0.109"/>
<circle cx="314.6" cy="247.6" r="1.5" fill="#F2D08A" opacity="0.216"/>
<circle cx="437.8" cy="503.5" r="1.2" fill="#F2D08A" opacity="0.053"/>
<circle cx="275.5" cy="451.4" r="1.2" fill="#F2D08A" opacity="0.262"/>
<circle cx="237.9" cy="474.3" r="1.5" fill="#F2D08A" opacity="0.179"/>
<circle cx="248.3" cy="765.7" r="1.5" fill="#F2D08A" opacity="0.164"/>
<circle cx="294.3" cy="344.0" r="1.2" fill="#F2D08A" opacity="0.230"/>
<circle cx="449.9" cy="239.6" r="0.7" fill="#F2D08A" opacity="0.087"/>
<circle cx="200.4" cy="583.3" r="0.7" fill="#F2D08A" opacity="0.278"/>
<circle cx="108.8" cy="220.3" r="1.2" fill="#F2D08A" opacity="0.054"/>
<circle cx="803.6" cy="101.8" r="0.7" fill="#F2D08A" opacity="0.187"/>
<circle cx="518.2" cy="417.3" r="1.2" fill="#F2D08A" opacity="0.142"/>
<circle cx="425.3" cy="685.1" r="0.7" fill="#F2D08A" opacity="0.066"/>
<circle cx="193.3" cy="716.3" r="1.5" fill="#F2D08A" opacity="0.107"/>
<circle cx="315.0" cy="503.3" r="1.2" fill="#F2D08A" opacity="0.115"/>
<circle cx="233.5" cy="460.0" r="1.2" fill="#F2D08A" opacity="0.212"/>
<circle cx="556.8" cy="381.9" r="0.9" fill="#F2D08A" opacity="0.145"/>
<circle cx="734.9" cy="121.3" r="0.7" fill="#F2D08A" opacity="0.257"/>
<circle cx="645.7" cy="121.3" r="0.9" fill="#F2D08A" opacity="0.219"/>
<circle cx="537.6" cy="618.2" r="0.7" fill="#F2D08A" opacity="0.238"/>
<circle cx="192.2" cy="575.0" r="0.9" fill="#F2D08A" opacity="0.173"/>
<circle cx="668.1" cy="166.7" r="1.2" fill="#F2D08A" opacity="0.087"/>
<circle cx="561.6" cy="508.8" r="0.7" fill="#F2D08A" opacity="0.277"/>
<circle cx="894.5" cy="731.4" r="0.7" fill="#F2D08A" opacity="0.148"/>
<circle cx="391.3" cy="143.3" r="0.7" fill="#F2D08A" opacity="0.207"/>
<circle cx="76.5" cy="550.1" r="1.2" fill="#F2D08A" opacity="0.245"/>
<circle cx="899.6" cy="746.0" r="0.9" fill="#F2D08A" opacity="0.059"/>
<circle cx="658.7" cy="333.8" r="1.2" fill="#F2D08A" opacity="0.082"/>
<circle cx="279.9" cy="443.5" r="1.2" fill="#F2D08A" opacity="0.129"/>
<circle cx="167.4" cy="613.8" r="1.2" fill="#F2D08A" opacity="0.208"/>
<circle cx="41.0" cy="497.8" r="0.9" fill="#F2D08A" opacity="0.207"/>
<circle cx="569.1" cy="154.3" r="1.2" fill="#F2D08A" opacity="0.156"/>
<circle cx="889.0" cy="809.2" r="0.9" fill="#F2D08A" opacity="0.129"/>
<circle cx="544.7" cy="230.9" r="1.2" fill="#F2D08A" opacity="0.257"/>
<circle cx="106.1" cy="328.0" r="1.5" fill="#F2D08A" opacity="0.244"/>
<circle cx="280.1" cy="151.3" r="0.9" fill="#F2D08A" opacity="0.236"/>
<circle cx="269.7" cy="555.2" r="0.7" fill="#F2D08A" opacity="0.100"/>
<circle cx="255.0" cy="586.5" r="1.5" fill="#F2D08A" opacity="0.212"/>
<circle cx="179.1" cy="309.5" r="1.5" fill="#F2D08A" opacity="0.088"/>
<circle cx="347.6" cy="552.1" r="0.7" fill="#F2D08A" opacity="0.095"/>
<circle cx="454.4" cy="116.6" r="0.7" fill="#F2D08A" opacity="0.237"/>
<circle cx="517.4" cy="405.7" r="1.5" fill="#F2D08A" opacity="0.142"/>
<circle cx="698.0" cy="199.8" r="0.9" fill="#F2D08A" opacity="0.081"/>
<circle cx="885.3" cy="735.7" r="0.9" fill="#F2D08A" opacity="0.075"/>
<circle cx="826.5" cy="733.7" r="1.2" fill="#F2D08A" opacity="0.209"/>
<circle cx="681.8" cy="167.6" r="1.5" fill="#F2D08A" opacity="0.129"/>
<circle cx="844.1" cy="200.3" r="0.9" fill="#F2D08A" opacity="0.210"/>
<circle cx="508.0" cy="370.3" r="0.9" fill="#F2D08A" opacity="0.217"/>
<circle cx="121.0" cy="517.9" r="1.5" fill="#F2D08A" opacity="0.147"/>
<circle cx="780.0" cy="85.3" r="1.5" fill="#F2D08A" opacity="0.057"/>
<circle cx="707.7" cy="597.4" r="1.5" fill="#F2D08A" opacity="0.245"/>
<circle cx="408.5" cy="671.8" r="0.7" fill="#F2D08A" opacity="0.225"/>
<circle cx="165.6" cy="108.4" r="0.7" fill="#F2D08A" opacity="0.253"/>
<circle cx="586.8" cy="353.6" r="1.5" fill="#F2D08A" opacity="0.115"/>
<circle cx="707.1" cy="805.4" r="1.5" fill="#F2D08A" opacity="0.147"/>
<circle cx="258.7" cy="481.9" r="1.5" fill="#F2D08A" opacity="0.204"/>
<circle cx="664.6" cy="473.8" r="1.2" fill="#F2D08A" opacity="0.071"/>
<circle cx="569.7" cy="370.1" r="0.9" fill="#F2D08A" opacity="0.141"/>
<circle cx="817.9" cy="366.6" r="1.2" fill="#F2D08A" opacity="0.166"/>
<circle cx="786.6" cy="292.6" r="1.2" fill="#F2D08A" opacity="0.064"/>
<circle cx="636.8" cy="460.7" r="1.2" fill="#F2D08A" opacity="0.112"/>
<circle cx="586.4" cy="210.0" r="5.0" fill="#F2D08A" opacity="0.08" filter="url(#pGlow)"/>
<circle cx="315.6" cy="365.1" r="4.7" fill="#F2D08A" opacity="0.08" filter="url(#pGlow)"/>
<circle cx="679.8" cy="552.8" r="4.7" fill="#F2D08A" opacity="0.08" filter="url(#pGlow)"/>
<circle cx="748.2" cy="353.8" r="5.9" fill="#F2D08A" opacity="0.08" filter="url(#pGlow)"/>
<circle cx="546.1" cy="234.0" r="6.2" fill="#F2D08A" opacity="0.08" filter="url(#pGlow)"/>
<circle cx="709.9" cy="579.2" r="7.1" fill="#F2D08A" opacity="0.08" filter="url(#pGlow)"/>
<circle cx="574.4" cy="601.9" r="4.4" fill="#F2D08A" opacity="0.08" filter="url(#pGlow)"/>
<circle cx="244.1" cy="536.4" r="7.4" fill="#F2D08A" opacity="0.08" filter="url(#pGlow)"/>
<circle cx="607.9" cy="380.1" r="5.8" fill="#F2D08A" opacity="0.08" filter="url(#pGlow)"/>
<circle cx="477.8" cy="304.4" r="5.5" fill="#F2D08A" opacity="0.08" filter="url(#pGlow)"/>
</svg>